program_change channel=0 program=81 time=0<meta message track_name name='Sawtooth Wave' time=0><meta message set_tempo tempo=239043 time=0>control_change channel=0 control=7 value=112 time=960control_change channel=0 control=91 value=0 time=0note_on channel=0 note=69 velocity=112 time=1080note_on channel=0 note=69 velocity=0 time=1380note_on channel=0 note=66 velocity=112 time=60note_on channel=0 note=66 velocity=0 time=180note_on channel=0 note=69 velocity=112 time=60note_on channel=0 note=69 velocity=0 time=180note_on channel=0 note=74 velocity=112 time=60note_on channel=0 note=74 velocity=0 time=900note_on channel=0 note=78 velocity=112 time=60note_on channel=0 note=78 velocity=0 time=900note_on channel=0 note=76 velocity=112 time=60note_on channel=0 note=76 velocity=0 time=300note_on channel=0 note=71 velocity=112 time=420note_on channel=0 note=71 velocity=0 time=180note_on channel=0 note=71 velocity=112 time=60note_on channel=0 note=71 velocity=0 time=2340note_on channel=0 note=71 velocity=112 time=60note_on channel=0 note=71 velocity=0 time=180note_on channel=0 note=73 velocity=112 time=60note_on channel=0 note=73 velocity=0 time=180note_on channel=0 note=74 velocity=112 time=60note_on channel=0 note=74 velocity=0 time=1380note_on channel=0 note=70 velocity=112 time=60note_on channel=0 note=70 velocity=0 time=180note_on channel=0 note=72 velocity=112 time=60note_on channel=0 note=72 velocity=0 time=180note_on channel=0 note=74 velocity=112 time=60note_on channel=0 note=74 velocity=0 time=900note_on channel=0 note=76 velocity=112 time=60note_on channel=0 note=76 velocity=0 time=180note_on channel=0 note=69 velocity=112 time=120note_on channel=0 note=69 velocity=0 time=180note_on channel=0 note=76 velocity=112 time=120note_on channel=0 note=76 velocity=0 time=180note_on channel=0 note=78 velocity=112 time=120note_on channel=0 note=78 velocity=0 time=360note_on channel=0 note=69 velocity=112 time=360note_on channel=0 note=69 velocity=0 time=180note_on channel=0 note=69 velocity=112 time=60note_on channel=0 note=69 velocity=0 time=1920note_on channel=0 note=69 velocity=112 time=60note_on channel=0 note=69 velocity=0 time=540note_on channel=0 note=69 velocity=112 time=52note_on channel=0 note=69 velocity=0 time=120note_on channel=0 note=69 velocity=112 time=40note_on channel=0 note=69 velocity=0 time=120note_on channel=0 note=69 velocity=112 time=28note_on channel=0 note=69 velocity=0 time=1380note_on channel=0 note=66 velocity=112 time=60note_on channel=0 note=66 velocity=0 time=180note_on channel=0 note=69 velocity=112 time=60note_on channel=0 note=69 velocity=0 time=180note_on channel=0 note=74 velocity=112 time=60note_on channel=0 note=74 velocity=0 time=900note_on channel=0 note=78 velocity=112 time=60note_on channel=0 note=78 velocity=0 time=900note_on channel=0 note=76 velocity=112 time=60note_on channel=0 note=76 velocity=0 time=300note_on channel=0 note=71 velocity=112 time=420note_on channel=0 note=71 velocity=0 time=180note_on channel=0 note=71 velocity=112 time=60note_on channel=0 note=71 velocity=0 time=2340note_on channel=0 note=71 velocity=112 time=60note_on channel=0 note=71 velocity=0 time=180note_on channel=0 note=73 velocity=112 time=60note_on channel=0 note=73 velocity=0 time=180note_on channel=0 note=74 velocity=112 time=60note_on channel=0 note=74 velocity=0 time=1380note_on channel=0 note=70 velocity=112 time=60note_on channel=0 note=70 velocity=0 time=180note_on channel=0 note=72 velocity=112 time=60note_on channel=0 note=72 velocity=0 time=180note_on channel=0 note=74 velocity=112 time=60note_on channel=0 note=74 velocity=0 time=900note_on channel=0 note=76 velocity=112 time=60note_on channel=0 note=76 velocity=0 time=180note_on channel=0 note=69 velocity=112 time=120note_on channel=0 note=69 velocity=0 time=180note_on channel=0 note=76 velocity=112 time=120note_on channel=0 note=76 velocity=0 time=180control_change channel=0 control=7 value=112 time=120note_on channel=0 note=78 velocity=112 time=0control_change channel=0 control=7 value=111 time=42control_change channel=0 control=7 value=110 time=42control_change channel=0 control=7 value=109 time=42control_change channel=0 control=7 value=108 time=42control_change channel=0 control=7 value=107 time=42control_change channel=0 control=7 value=106 time=42control_change channel=0 control=7 value=105 time=42control_change channel=0 control=7 value=104 time=42control_change channel=0 control=7 value=103 time=42control_change channel=0 control=7 value=102 time=42control_change channel=0 control=7 value=101 time=42control_change channel=0 control=7 value=100 time=42control_change channel=0 control=7 value=99 time=42control_change channel=0 control=7 value=98 time=42control_change channel=0 control=7 value=97 time=42control_change channel=0 control=7 value=96 time=42control_change channel=0 control=7 value=95 time=42control_change channel=0 control=7 value=94 time=42control_change channel=0 control=7 value=93 time=42control_change channel=0 control=7 value=92 time=42control_change channel=0 control=7 value=91 time=42control_change channel=0 control=7 value=90 time=42control_change channel=0 control=7 value=89 time=42control_change channel=0 control=7 value=88 time=42control_change channel=0 control=7 value=87 time=42control_change channel=0 control=7 value=86 time=42control_change channel=0 control=7 value=85 time=42control_change channel=0 control=7 value=84 time=42control_change channel=0 control=7 value=83 time=42control_change channel=0 control=7 value=82 time=42control_change channel=0 control=7 value=81 time=42control_change channel=0 control=7 value=80 time=42control_change channel=0 control=7 value=79 time=42control_change channel=0 control=7 value=78 time=42control_change channel=0 control=7 value=77 time=42control_change channel=0 control=7 value=76 time=42control_change channel=0 control=7 value=75 time=42control_change channel=0 control=7 value=74 time=42control_change channel=0 control=7 value=73 time=42control_change channel=0 control=7 value=72 time=42control_change channel=0 control=7 value=71 time=42control_change channel=0 control=7 value=70 time=42control_change channel=0 control=7 value=69 time=42control_change channel=0 control=7 value=68 time=42control_change channel=0 control=7 value=67 time=42control_change channel=0 control=7 value=66 time=42control_change channel=0 control=7 value=65 time=42control_change channel=0 control=7 value=64 time=42control_change channel=0 control=7 value=63 time=42control_change channel=0 control=7 value=62 time=42control_change channel=0 control=7 value=61 time=42control_change channel=0 control=7 value=60 time=42control_change channel=0 control=7 value=59 time=42control_change channel=0 control=7 value=58 time=42control_change channel=0 control=7 value=57 time=42control_change channel=0 control=7 value=56 time=42control_change channel=0 control=7 value=55 time=42control_change channel=0 control=7 value=54 time=42control_change channel=0 control=7 value=53 time=42control_change channel=0 control=7 value=52 time=42control_change channel=0 control=7 value=51 time=42control_change channel=0 control=7 value=50 time=42control_change channel=0 control=7 value=49 time=42control_change channel=0 control=7 value=48 time=42control_change channel=0 control=7 value=47 time=42control_change channel=0 control=7 value=46 time=42control_change channel=0 control=7 value=45 time=42control_change channel=0 control=7 value=44 time=42control_change channel=0 control=7 value=43 time=42control_change channel=0 control=7 value=42 time=42control_change channel=0 control=7 value=41 time=42control_change channel=0 control=7 value=40 time=42control_change channel=0 control=7 value=39 time=42control_change channel=0 control=7 value=38 time=42control_change channel=0 control=7 value=37 time=42control_change channel=0 control=7 value=36 time=42control_change channel=0 control=7 value=35 time=42control_change channel=0 control=7 value=34 time=42control_change channel=0 control=7 value=33 time=42note_on channel=0 note=78 velocity=0 time=42control_change channel=0 control=7 value=32 time=0control_change channel=0 control=7 value=112 time=240note_on channel=0 note=74 velocity=112 time=61680note_on channel=0 note=74 velocity=0 time=1360note_on channel=0 note=74 velocity=112 time=80note_on channel=0 note=74 velocity=0 time=160note_on channel=0 note=74 velocity=112 time=80note_on channel=0 note=74 velocity=0 time=160note_on channel=0 note=74 velocity=112 time=80note_on channel=0 note=74 velocity=0 time=160note_on channel=0 note=72 velocity=112 time=320note_on channel=0 note=72 velocity=0 time=160note_on channel=0 note=70 velocity=112 time=320note_on channel=0 note=70 velocity=0 time=160note_on channel=0 note=74 velocity=112 time=320note_on channel=0 note=74 velocity=0 time=160note_on channel=0 note=72 velocity=112 time=320note_on channel=0 note=72 velocity=0 time=160note_on channel=0 note=65 velocity=112 time=560note_on channel=0 note=65 velocity=0 time=160note_on channel=0 note=65 velocity=112 time=80note_on channel=0 note=65 velocity=0 time=1360note_on channel=0 note=65 velocity=112 time=80note_on channel=0 note=65 velocity=0 time=160note_on channel=0 note=67 velocity=112 time=320note_on channel=0 note=67 velocity=0 time=160note_on channel=0 note=69 velocity=112 time=320note_on channel=0 note=69 velocity=0 time=160note_on channel=0 note=70 velocity=112 time=320note_on channel=0 note=70 velocity=0 time=1360note_on channel=0 note=70 velocity=112 time=80note_on channel=0 note=70 velocity=0 time=160note_on channel=0 note=70 velocity=112 time=80note_on channel=0 note=70 velocity=0 time=160note_on channel=0 note=70 velocity=112 time=80note_on channel=0 note=70 velocity=0 time=160note_on channel=0 note=69 velocity=112 time=320note_on channel=0 note=69 velocity=0 time=160note_on channel=0 note=67 velocity=112 time=320note_on channel=0 note=67 velocity=0 time=160note_on channel=0 note=70 velocity=112 time=320note_on channel=0 note=70 velocity=0 time=160note_on channel=0 note=69 velocity=112 time=320note_on channel=0 note=69 velocity=0 time=160note_on channel=0 note=62 velocity=112 time=560note_on channel=0 note=62 velocity=0 time=160note_on channel=0 note=62 velocity=112 time=80note_on channel=0 note=62 velocity=0 time=1360note_on channel=0 note=57 velocity=112 time=80note_on channel=0 note=57 velocity=0 time=160note_on channel=0 note=62 velocity=112 time=320note_on channel=0 note=62 velocity=0 time=160note_on channel=0 note=66 velocity=112 time=160note_on channel=0 note=66 velocity=0 time=160note_on channel=0 note=69 velocity=112 time=160note_on channel=0 note=69 velocity=0 time=160note_on channel=0 note=74 velocity=112 time=160note_on channel=0 note=74 velocity=0 time=1360note_on channel=0 note=74 velocity=112 time=80note_on channel=0 note=74 velocity=0 time=160note_on channel=0 note=74 velocity=112 time=80note_on channel=0 note=74 velocity=0 time=160note_on channel=0 note=74 velocity=112 time=80note_on channel=0 note=74 velocity=0 time=160note_on channel=0 note=72 velocity=112 time=320note_on channel=0 note=72 velocity=0 time=160note_on channel=0 note=70 velocity=112 time=320note_on channel=0 note=70 velocity=0 time=160note_on channel=0 note=74 velocity=112 time=320note_on channel=0 note=74 velocity=0 time=160note_on channel=0 note=72 velocity=112 time=320note_on channel=0 note=72 velocity=0 time=160note_on channel=0 note=65 velocity=112 time=560note_on channel=0 note=65 velocity=0 time=160note_on channel=0 note=65 velocity=112 time=80note_on channel=0 note=65 velocity=0 time=1360note_on channel=0 note=65 velocity=112 time=80note_on channel=0 note=65 velocity=0 time=160note_on channel=0 note=67 velocity=112 time=320note_on channel=0 note=67 velocity=0 time=160note_on channel=0 note=69 velocity=112 time=320note_on channel=0 note=69 velocity=0 time=160note_on channel=0 note=71 velocity=112 time=320note_on channel=0 note=71 velocity=0 time=160note_on channel=0 note=64 velocity=112 time=560note_on channel=0 note=64 velocity=0 time=240note_on channel=0 note=76 velocity=112 time=0note_on channel=0 note=76 velocity=0 time=1360note_on channel=0 note=64 velocity=112 time=80note_on channel=0 note=64 velocity=0 time=160note_on channel=0 note=68 velocity=112 time=320note_on channel=0 note=68 velocity=0 time=160note_on channel=0 note=74 velocity=112 time=320note_on channel=0 note=74 velocity=0 time=160note_on channel=0 note=73 velocity=112 time=320note_on channel=0 note=73 velocity=0 time=160note_on channel=0 note=69 velocity=112 time=560note_on channel=0 note=69 velocity=0 time=160note_on channel=0 note=69 velocity=112 time=80note_on channel=0 note=69 velocity=0 time=1680note_on channel=0 note=57 velocity=112 time=240note_on channel=0 note=57 velocity=0 time=160note_on channel=0 note=57 velocity=112 time=160note_on channel=0 note=57 velocity=0 time=160note_on channel=0 note=57 velocity=112 time=160note_on channel=0 note=57 velocity=0 time=160<meta message end_of_track time=32800>program_change channel=1 program=80 time=0<meta message track_name name='Square Wave' time=0>control_change channel=1 control=7 value=112 time=960control_change channel=1 control=91 value=0 time=0note_on channel=1 note=66 velocity=80 time=1080note_on channel=1 note=66 velocity=0 time=1380note_on channel=1 note=66 velocity=80 time=60note_on channel=1 note=66 velocity=0 time=180note_on channel=1 note=66 velocity=80 time=60note_on channel=1 note=66 velocity=0 time=180note_on channel=1 note=66 velocity=80 time=60note_on channel=1 note=66 velocity=0 time=900note_on channel=1 note=69 velocity=80 time=60note_on channel=1 note=69 velocity=0 time=900note_on channel=1 note=56 velocity=80 time=60note_on channel=1 note=56 velocity=0 time=300note_on channel=1 note=56 velocity=80 time=420note_on channel=1 note=56 velocity=0 time=180note_on channel=1 note=68 velocity=80 time=60note_on channel=1 note=68 velocity=0 time=900note_on channel=1 note=64 velocity=80 time=60note_on channel=1 note=64 velocity=0 time=900note_on channel=1 note=56 velocity=80 time=60note_on channel=1 note=56 velocity=0 time=420note_on channel=1 note=56 velocity=80 time=60note_on channel=1 note=56 velocity=0 time=180note_on channel=1 note=57 velocity=80 time=60note_on channel=1 note=57 velocity=0 time=180note_on channel=1 note=59 velocity=80 time=60note_on channel=1 note=59 velocity=0 time=1380note_on channel=1 note=62 velocity=80 time=60note_on channel=1 note=62 velocity=0 time=180note_on channel=1 note=64 velocity=80 time=60note_on channel=1 note=64 velocity=0 time=180note_on channel=1 note=65 velocity=80 time=60note_on channel=1 note=65 velocity=0 time=900note_on channel=1 note=67 velocity=80 time=60note_on channel=1 note=67 velocity=0 time=180note_on channel=1 note=67 velocity=80 time=120note_on channel=1 note=67 velocity=0 time=180note_on channel=1 note=67 velocity=80 time=120note_on channel=1 note=67 velocity=0 time=180note_on channel=1 note=69 velocity=80 time=120note_on channel=1 note=69 velocity=0 time=360note_on channel=1 note=66 velocity=80 time=360note_on channel=1 note=66 velocity=0 time=180note_on channel=1 note=66 velocity=80 time=60note_on channel=1 note=66 velocity=0 time=1920note_on channel=1 note=67 velocity=80 time=60note_on channel=1 note=67 velocity=0 time=540note_on channel=1 note=67 velocity=80 time=52note_on channel=1 note=67 velocity=0 time=120note_on channel=1 note=67 velocity=80 time=40note_on channel=1 note=67 velocity=0 time=120note_on channel=1 note=66 velocity=80 time=28note_on channel=1 note=66 velocity=0 time=1380note_on channel=1 note=66 velocity=80 time=60note_on channel=1 note=66 velocity=0 time=180note_on channel=1 note=66 velocity=80 time=60note_on channel=1 note=66 velocity=0 time=180note_on channel=1 note=66 velocity=80 time=60note_on channel=1 note=66 velocity=0 time=900note_on channel=1 note=69 velocity=80 time=60note_on channel=1 note=69 velocity=0 time=900note_on channel=1 note=56 velocity=80 time=60note_on channel=1 note=56 velocity=0 time=300note_on channel=1 note=56 velocity=80 time=420note_on channel=1 note=56 velocity=0 time=180note_on channel=1 note=68 velocity=80 time=60note_on channel=1 note=68 velocity=0 time=900note_on channel=1 note=64 velocity=80 time=60note_on channel=1 note=64 velocity=0 time=900note_on channel=1 note=56 velocity=80 time=60note_on channel=1 note=56 velocity=0 time=420note_on channel=1 note=56 velocity=80 time=60note_on channel=1 note=56 velocity=0 time=180note_on channel=1 note=57 velocity=80 time=60note_on channel=1 note=57 velocity=0 time=180note_on channel=1 note=59 velocity=80 time=60note_on channel=1 note=59 velocity=0 time=1380note_on channel=1 note=62 velocity=80 time=60note_on channel=1 note=62 velocity=0 time=180note_on channel=1 note=64 velocity=80 time=60note_on channel=1 note=64 velocity=0 time=180note_on channel=1 note=65 velocity=80 time=60note_on channel=1 note=65 velocity=0 time=900note_on channel=1 note=67 velocity=80 time=60note_on channel=1 note=67 velocity=0 time=180note_on channel=1 note=67 velocity=80 time=120note_on channel=1 note=67 velocity=0 time=180note_on channel=1 note=67 velocity=80 time=120note_on channel=1 note=67 velocity=0 time=180control_change channel=1 control=7 value=112 time=120note_on channel=1 note=69 velocity=80 time=0control_change channel=1 control=7 value=111 time=42control_change channel=1 control=7 value=110 time=41control_change channel=1 control=7 value=109 time=42control_change channel=1 control=7 value=108 time=41control_change channel=1 control=7 value=107 time=42control_change channel=1 control=7 value=106 time=41control_change channel=1 control=7 value=105 time=42control_change channel=1 control=7 value=104 time=41control_change channel=1 control=7 value=103 time=42control_change channel=1 control=7 value=102 time=41control_change channel=1 control=7 value=101 time=42control_change channel=1 control=7 value=100 time=41control_change channel=1 control=7 value=99 time=42control_change channel=1 control=7 value=98 time=41control_change channel=1 control=7 value=97 time=42control_change channel=1 control=7 value=96 time=41control_change channel=1 control=7 value=95 time=42control_change channel=1 control=7 value=94 time=41control_change channel=1 control=7 value=93 time=42control_change channel=1 control=7 value=92 time=41control_change channel=1 control=7 value=91 time=42control_change channel=1 control=7 value=90 time=41control_change channel=1 control=7 value=89 time=42control_change channel=1 control=7 value=88 time=41control_change channel=1 control=7 value=87 time=42control_change channel=1 control=7 value=86 time=41control_change channel=1 control=7 value=85 time=41control_change channel=1 control=7 value=84 time=42control_change channel=1 control=7 value=83 time=41control_change channel=1 control=7 value=82 time=42control_change channel=1 control=7 value=81 time=41control_change channel=1 control=7 value=80 time=42control_change channel=1 control=7 value=79 time=41control_change channel=1 control=7 value=78 time=42control_change channel=1 control=7 value=77 time=41control_change channel=1 control=7 value=76 time=42control_change channel=1 control=7 value=75 time=41control_change channel=1 control=7 value=74 time=42control_change channel=1 control=7 value=73 time=41control_change channel=1 control=7 value=72 time=42control_change channel=1 control=7 value=71 time=41control_change channel=1 control=7 value=70 time=42control_change channel=1 control=7 value=69 time=41control_change channel=1 control=7 value=68 time=42control_change channel=1 control=7 value=67 time=41control_change channel=1 control=7 value=66 time=42control_change channel=1 control=7 value=65 time=41control_change channel=1 control=7 value=64 time=42control_change channel=1 control=7 value=63 time=41control_change channel=1 control=7 value=62 time=42control_change channel=1 control=7 value=61 time=41control_change channel=1 control=7 value=60 time=42control_change channel=1 control=7 value=59 time=41control_change channel=1 control=7 value=58 time=41control_change channel=1 control=7 value=57 time=42control_change channel=1 control=7 value=56 time=41control_change channel=1 control=7 value=55 time=42control_change channel=1 control=7 value=54 time=41control_change channel=1 control=7 value=53 time=42control_change channel=1 control=7 value=52 time=41control_change channel=1 control=7 value=51 time=42control_change channel=1 control=7 value=50 time=41control_change channel=1 control=7 value=49 time=42control_change channel=1 control=7 value=48 time=41control_change channel=1 control=7 value=47 time=42control_change channel=1 control=7 value=46 time=41control_change channel=1 control=7 value=45 time=42control_change channel=1 control=7 value=44 time=41control_change channel=1 control=7 value=43 time=42note_on channel=1 note=69 velocity=0 time=17control_change channel=1 control=7 value=112 time=480note_on channel=1 note=57 velocity=112 time=160note_on channel=1 note=57 velocity=0 time=240note_on channel=1 note=62 velocity=112 time=80note_on channel=1 note=62 velocity=0 time=960note_on channel=1 note=57 velocity=112 time=0note_on channel=1 note=57 velocity=0 time=160note_on channel=1 note=62 velocity=112 time=160note_on channel=1 note=62 velocity=0 time=160note_on channel=1 note=71 velocity=112 time=160note_on channel=1 note=71 velocity=0 time=160note_on channel=1 note=69 velocity=112 time=160note_on channel=1 note=69 velocity=0 time=1120note_on channel=1 note=66 velocity=112 time=160note_on channel=1 note=66 velocity=0 time=160note_on channel=1 note=69 velocity=112 time=160note_on channel=1 note=69 velocity=0 time=160note_on channel=1 note=69 velocity=112 time=160note_on channel=1 note=69 velocity=0 time=240note_on channel=1 note=68 velocity=112 time=480note_on channel=1 note=68 velocity=0 time=200note_on channel=1 note=68 velocity=112 time=40note_on channel=1 note=68 velocity=0 time=1920note_on channel=1 note=64 velocity=112 time=320note_on channel=1 note=64 velocity=0 time=160note_on channel=1 note=66 velocity=112 time=160note_on channel=1 note=66 velocity=0 time=160note_on channel=1 note=67 velocity=112 time=160note_on channel=1 note=67 velocity=0 time=960note_on channel=1 note=59 velocity=112 time=0note_on channel=1 note=59 velocity=0 time=160note_on channel=1 note=62 velocity=112 time=160note_on channel=1 note=62 velocity=0 time=160note_on channel=1 note=69 velocity=112 time=160note_on channel=1 note=69 velocity=0 time=160note_on channel=1 note=67 velocity=112 time=160note_on channel=1 note=67 velocity=0 time=1200note_on channel=1 note=64 velocity=112 time=80note_on channel=1 note=64 velocity=0 time=160note_on channel=1 note=67 velocity=112 time=160note_on channel=1 note=67 velocity=0 time=160note_on channel=1 note=67 velocity=112 time=160note_on channel=1 note=67 velocity=0 time=240note_on channel=1 note=66 velocity=112 time=240note_on channel=1 note=66 velocity=0 time=160note_on channel=1 note=64 velocity=112 time=80note_on channel=1 note=64 velocity=0 time=160note_on channel=1 note=66 velocity=112 time=80note_on channel=1 note=66 velocity=0 time=1760note_on channel=1 note=57 velocity=112 time=160note_on channel=1 note=57 velocity=0 time=160note_on channel=1 note=57 velocity=112 time=160note_on channel=1 note=57 velocity=0 time=160note_on channel=1 note=57 velocity=112 time=160note_on channel=1 note=57 velocity=0 time=160note_on channel=1 note=62 velocity=112 time=160note_on channel=1 note=62 velocity=0 time=960note_on channel=1 note=57 velocity=112 time=0note_on channel=1 note=57 velocity=0 time=160note_on channel=1 note=62 velocity=112 time=160note_on channel=1 note=62 velocity=0 time=160note_on channel=1 note=71 velocity=112 time=160note_on channel=1 note=71 velocity=0 time=160note_on channel=1 note=69 velocity=112 time=160note_on channel=1 note=69 velocity=0 time=1120note_on channel=1 note=66 velocity=112 time=160note_on channel=1 note=66 velocity=0 time=160note_on channel=1 note=69 velocity=112 time=160note_on channel=1 note=69 velocity=0 time=160note_on channel=1 note=69 velocity=112 time=160note_on channel=1 note=69 velocity=0 time=240note_on channel=1 note=68 velocity=112 time=480note_on channel=1 note=68 velocity=0 time=200note_on channel=1 note=68 velocity=112 time=40note_on channel=1 note=68 velocity=0 time=1920note_on channel=1 note=64 velocity=112 time=320note_on channel=1 note=64 velocity=0 time=160note_on channel=1 note=66 velocity=112 time=160note_on channel=1 note=66 velocity=0 time=160note_on channel=1 note=67 velocity=112 time=160note_on channel=1 note=67 velocity=0 time=960note_on channel=1 note=59 velocity=112 time=0note_on channel=1 note=59 velocity=0 time=160note_on channel=1 note=62 velocity=112 time=160note_on channel=1 note=62 velocity=0 time=160note_on channel=1 note=69 velocity=112 time=160note_on channel=1 note=69 velocity=0 time=160note_on channel=1 note=67 velocity=112 time=160note_on channel=1 note=67 velocity=0 time=1200note_on channel=1 note=64 velocity=112 time=80note_on channel=1 note=64 velocity=0 time=160note_on channel=1 note=67 velocity=112 time=160note_on channel=1 note=67 velocity=0 time=160note_on channel=1 note=66 velocity=112 time=160note_on channel=1 note=66 velocity=0 time=160note_on channel=1 note=64 velocity=112 time=160note_on channel=1 note=64 velocity=0 time=160note_on channel=1 note=66 velocity=112 time=160note_on channel=1 note=66 velocity=0 time=160note_on channel=1 note=62 velocity=112 time=160note_on channel=1 note=62 velocity=0 time=1840note_on channel=1 note=57 velocity=112 time=80note_on channel=1 note=57 velocity=0 time=160note_on channel=1 note=57 velocity=112 time=160note_on channel=1 note=57 velocity=0 time=160note_on channel=1 note=57 velocity=112 time=160note_on channel=1 note=57 velocity=0 time=160note_on channel=1 note=62 velocity=112 time=160note_on channel=1 note=62 velocity=0 time=960note_on channel=1 note=57 velocity=112 time=0note_on channel=1 note=57 velocity=0 time=160note_on channel=1 note=62 velocity=112 time=160note_on channel=1 note=62 velocity=0 time=160note_on channel=1 note=71 velocity=112 time=160note_on channel=1 note=71 velocity=0 time=160note_on channel=1 note=69 velocity=112 time=160note_on channel=1 note=69 velocity=0 time=1120note_on channel=1 note=66 velocity=112 time=160note_on channel=1 note=66 velocity=0 time=160note_on channel=1 note=69 velocity=112 time=160note_on channel=1 note=69 velocity=0 time=160note_on channel=1 note=69 velocity=112 time=160note_on channel=1 note=69 velocity=0 time=240note_on channel=1 note=68 velocity=112 time=480note_on channel=1 note=68 velocity=0 time=200note_on channel=1 note=68 velocity=112 time=40note_on channel=1 note=68 velocity=0 time=1920note_on channel=1 note=64 velocity=112 time=320note_on channel=1 note=64 velocity=0 time=160note_on channel=1 note=66 velocity=112 time=160note_on channel=1 note=66 velocity=0 time=160note_on channel=1 note=67 velocity=112 time=160note_on channel=1 note=67 velocity=0 time=960note_on channel=1 note=59 velocity=112 time=0note_on channel=1 note=59 velocity=0 time=160note_on channel=1 note=62 velocity=112 time=160note_on channel=1 note=62 velocity=0 time=160note_on channel=1 note=69 velocity=112 time=160note_on channel=1 note=69 velocity=0 time=160note_on channel=1 note=67 velocity=112 time=160note_on channel=1 note=67 velocity=0 time=1200note_on channel=1 note=64 velocity=112 time=80note_on channel=1 note=64 velocity=0 time=160note_on channel=1 note=67 velocity=112 time=160note_on channel=1 note=67 velocity=0 time=160note_on channel=1 note=67 velocity=112 time=160note_on channel=1 note=67 velocity=0 time=240note_on channel=1 note=66 velocity=112 time=240note_on channel=1 note=66 velocity=0 time=160note_on channel=1 note=64 velocity=112 time=80note_on channel=1 note=64 velocity=0 time=160note_on channel=1 note=66 velocity=112 time=80note_on channel=1 note=66 velocity=0 time=1760note_on channel=1 note=57 velocity=112 time=160note_on channel=1 note=57 velocity=0 time=160note_on channel=1 note=57 velocity=112 time=160note_on channel=1 note=57 velocity=0 time=160note_on channel=1 note=57 velocity=112 time=160note_on channel=1 note=57 velocity=0 time=160note_on channel=1 note=62 velocity=112 time=160note_on channel=1 note=62 velocity=0 time=960note_on channel=1 note=57 velocity=112 time=0note_on channel=1 note=57 velocity=0 time=160note_on channel=1 note=62 velocity=112 time=160note_on channel=1 note=62 velocity=0 time=160note_on channel=1 note=71 velocity=112 time=160note_on channel=1 note=71 velocity=0 time=160note_on channel=1 note=69 velocity=112 time=160note_on channel=1 note=69 velocity=0 time=1120note_on channel=1 note=66 velocity=112 time=160note_on channel=1 note=66 velocity=0 time=160note_on channel=1 note=69 velocity=112 time=160note_on channel=1 note=69 velocity=0 time=160note_on channel=1 note=69 velocity=112 time=160note_on channel=1 note=69 velocity=0 time=240note_on channel=1 note=68 velocity=112 time=480note_on channel=1 note=68 velocity=0 time=200note_on channel=1 note=68 velocity=112 time=40note_on channel=1 note=68 velocity=0 time=1920note_on channel=1 note=64 velocity=112 time=320note_on channel=1 note=64 velocity=0 time=160note_on channel=1 note=66 velocity=112 time=160note_on channel=1 note=66 velocity=0 time=160note_on channel=1 note=67 velocity=112 time=160note_on channel=1 note=67 velocity=0 time=960note_on channel=1 note=59 velocity=112 time=0note_on channel=1 note=59 velocity=0 time=160note_on channel=1 note=62 velocity=112 time=160note_on channel=1 note=62 velocity=0 time=160note_on channel=1 note=69 velocity=112 time=160note_on channel=1 note=69 velocity=0 time=160note_on channel=1 note=67 velocity=112 time=160note_on channel=1 note=67 velocity=0 time=1200note_on channel=1 note=64 velocity=112 time=80note_on channel=1 note=64 velocity=0 time=160note_on channel=1 note=67 velocity=112 time=160note_on channel=1 note=67 velocity=0 time=160note_on channel=1 note=66 velocity=112 time=160note_on channel=1 note=66 velocity=0 time=160note_on channel=1 note=64 velocity=112 time=160note_on channel=1 note=64 velocity=0 time=160note_on channel=1 note=66 velocity=112 time=160note_on channel=1 note=66 velocity=0 time=160note_on channel=1 note=62 velocity=112 time=160note_on channel=1 note=62 velocity=0 time=1440note_on channel=1 note=57 velocity=112 time=160note_on channel=1 note=57 velocity=0 time=160note_on channel=1 note=62 velocity=112 time=160note_on channel=1 note=62 velocity=0 time=160note_on channel=1 note=66 velocity=112 time=160note_on channel=1 note=66 velocity=0 time=160note_on channel=1 note=69 velocity=112 time=160note_on channel=1 note=69 velocity=0 time=160note_on channel=1 note=65 velocity=80 time=160note_on channel=1 note=65 velocity=0 time=880note_on channel=1 note=58 velocity=80 time=80note_on channel=1 note=58 velocity=0 time=880note_on channel=1 note=65 velocity=80 time=80note_on channel=1 note=65 velocity=0 time=160note_on channel=1 note=64 velocity=80 time=320note_on channel=1 note=64 velocity=0 time=160note_on channel=1 note=62 velocity=80 time=320note_on channel=1 note=62 velocity=0 time=160note_on channel=1 note=65 velocity=80 time=320note_on channel=1 note=65 velocity=0 time=160note_on channel=1 note=69 velocity=80 time=320note_on channel=1 note=69 velocity=0 time=160note_on channel=1 note=57 velocity=80 time=560note_on channel=1 note=57 velocity=0 time=240note_on channel=1 note=58 velocity=80 time=0note_on channel=1 note=58 velocity=0 time=240note_on channel=1 note=57 velocity=80 time=0note_on channel=1 note=57 velocity=0 time=240note_on channel=1 note=55 velocity=80 time=0note_on channel=1 note=55 velocity=0 time=240note_on channel=1 note=58 velocity=80 time=0note_on channel=1 note=58 velocity=0 time=240note_on channel=1 note=57 velocity=80 time=0note_on channel=1 note=57 velocity=0 time=880note_on channel=1 note=58 velocity=80 time=80note_on channel=1 note=58 velocity=0 time=160note_on channel=1 note=60 velocity=80 time=320note_on channel=1 note=60 velocity=0 time=160note_on channel=1 note=62 velocity=80 time=320note_on channel=1 note=62 velocity=0 time=880note_on channel=1 note=55 velocity=80 time=80note_on channel=1 note=55 velocity=0 time=880note_on channel=1 note=62 velocity=80 time=80note_on channel=1 note=62 velocity=0 time=160note_on channel=1 note=60 velocity=80 time=320note_on channel=1 note=60 velocity=0 time=160note_on channel=1 note=62 velocity=80 time=320note_on channel=1 note=62 velocity=0 time=160note_on channel=1 note=64 velocity=80 time=320note_on channel=1 note=64 velocity=0 time=160note_on channel=1 note=66 velocity=80 time=320note_on channel=1 note=66 velocity=0 time=160note_on channel=1 note=54 velocity=80 time=560note_on channel=1 note=54 velocity=0 time=240note_on channel=1 note=55 velocity=80 time=0note_on channel=1 note=55 velocity=0 time=240note_on channel=1 note=54 velocity=80 time=0note_on channel=1 note=54 velocity=0 time=240note_on channel=1 note=52 velocity=80 time=0note_on channel=1 note=52 velocity=0 time=240note_on channel=1 note=55 velocity=80 time=0note_on channel=1 note=55 velocity=0 time=240note_on channel=1 note=54 velocity=80 time=0note_on channel=1 note=54 velocity=0 time=880note_on channel=1 note=57 velocity=80 time=80note_on channel=1 note=57 velocity=0 time=160note_on channel=1 note=62 velocity=80 time=160note_on channel=1 note=62 velocity=0 time=160note_on channel=1 note=66 velocity=80 time=160note_on channel=1 note=66 velocity=0 time=160note_on channel=1 note=65 velocity=80 time=160note_on channel=1 note=65 velocity=0 time=880note_on channel=1 note=58 velocity=80 time=80note_on channel=1 note=58 velocity=0 time=880note_on channel=1 note=65 velocity=80 time=80note_on channel=1 note=65 velocity=0 time=160note_on channel=1 note=64 velocity=80 time=320note_on channel=1 note=64 velocity=0 time=160note_on channel=1 note=62 velocity=80 time=320note_on channel=1 note=62 velocity=0 time=160note_on channel=1 note=65 velocity=80 time=320note_on channel=1 note=65 velocity=0 time=160note_on channel=1 note=69 velocity=80 time=320note_on channel=1 note=69 velocity=0 time=160note_on channel=1 note=57 velocity=80 time=560note_on channel=1 note=57 velocity=0 time=240note_on channel=1 note=58 velocity=80 time=0note_on channel=1 note=58 velocity=0 time=240note_on channel=1 note=57 velocity=80 time=0note_on channel=1 note=57 velocity=0 time=240note_on channel=1 note=55 velocity=80 time=0note_on channel=1 note=55 velocity=0 time=240note_on channel=1 note=58 velocity=80 time=0note_on channel=1 note=58 velocity=0 time=240note_on channel=1 note=57 velocity=80 time=0note_on channel=1 note=57 velocity=0 time=400note_on channel=1 note=57 velocity=80 time=80note_on channel=1 note=57 velocity=0 time=160note_on channel=1 note=58 velocity=80 time=320note_on channel=1 note=58 velocity=0 time=160note_on channel=1 note=60 velocity=80 time=320note_on channel=1 note=60 velocity=0 time=160note_on channel=1 note=68 velocity=80 time=320note_on channel=1 note=68 velocity=0 time=160note_on channel=1 note=64 velocity=80 time=560note_on channel=1 note=64 velocity=0 time=240note_on channel=1 note=68 velocity=80 time=0note_on channel=1 note=68 velocity=0 time=1360note_on channel=1 note=56 velocity=80 time=80note_on channel=1 note=56 velocity=0 time=160note_on channel=1 note=64 velocity=80 time=320note_on channel=1 note=64 velocity=0 time=160note_on channel=1 note=68 velocity=80 time=320note_on channel=1 note=68 velocity=0 time=160note_on channel=1 note=69 velocity=80 time=320note_on channel=1 note=69 velocity=0 time=240note_on channel=1 note=61 velocity=80 time=240note_on channel=1 note=61 velocity=0 time=240note_on channel=1 note=61 velocity=80 time=0note_on channel=1 note=61 velocity=0 time=240note_on channel=1 note=62 velocity=80 time=0note_on channel=1 note=62 velocity=0 time=240note_on channel=1 note=61 velocity=80 time=0note_on channel=1 note=61 velocity=0 time=240note_on channel=1 note=59 velocity=80 time=0note_on channel=1 note=59 velocity=0 time=240note_on channel=1 note=62 velocity=80 time=0note_on channel=1 note=62 velocity=0 time=240note_on channel=1 note=61 velocity=80 time=0note_on channel=1 note=61 velocity=0 time=720note_on channel=1 note=55 velocity=80 time=240note_on channel=1 note=55 velocity=0 time=160note_on channel=1 note=52 velocity=80 time=160note_on channel=1 note=52 velocity=0 time=160note_on channel=1 note=55 velocity=80 time=160note_on channel=1 note=55 velocity=0 time=160note_on channel=1 note=62 velocity=112 time=160note_on channel=1 note=62 velocity=0 time=960note_on channel=1 note=57 velocity=112 time=0note_on channel=1 note=57 velocity=0 time=160note_on channel=1 note=62 velocity=112 time=160note_on channel=1 note=62 velocity=0 time=160note_on channel=1 note=71 velocity=112 time=160note_on channel=1 note=71 velocity=0 time=160note_on channel=1 note=69 velocity=112 time=160note_on channel=1 note=69 velocity=0 time=1120note_on channel=1 note=66 velocity=112 time=160note_on channel=1 note=66 velocity=0 time=160note_on channel=1 note=69 velocity=112 time=160note_on channel=1 note=69 velocity=0 time=160note_on channel=1 note=69 velocity=112 time=160note_on channel=1 note=69 velocity=0 time=240note_on channel=1 note=68 velocity=112 time=480note_on channel=1 note=68 velocity=0 time=200note_on channel=1 note=68 velocity=112 time=40note_on channel=1 note=68 velocity=0 time=1920note_on channel=1 note=64 velocity=112 time=320note_on channel=1 note=64 velocity=0 time=160note_on channel=1 note=66 velocity=112 time=160note_on channel=1 note=66 velocity=0 time=160note_on channel=1 note=67 velocity=112 time=160note_on channel=1 note=67 velocity=0 time=960note_on channel=1 note=59 velocity=112 time=0note_on channel=1 note=59 velocity=0 time=160note_on channel=1 note=62 velocity=112 time=160note_on channel=1 note=62 velocity=0 time=160note_on channel=1 note=69 velocity=112 time=160note_on channel=1 note=69 velocity=0 time=160note_on channel=1 note=67 velocity=112 time=160note_on channel=1 note=67 velocity=0 time=1200note_on channel=1 note=64 velocity=112 time=80note_on channel=1 note=64 velocity=0 time=160note_on channel=1 note=67 velocity=112 time=160note_on channel=1 note=67 velocity=0 time=160note_on channel=1 note=67 velocity=112 time=160note_on channel=1 note=67 velocity=0 time=240note_on channel=1 note=66 velocity=112 time=240note_on channel=1 note=66 velocity=0 time=160note_on channel=1 note=64 velocity=112 time=80note_on channel=1 note=64 velocity=0 time=160note_on channel=1 note=66 velocity=112 time=80note_on channel=1 note=66 velocity=0 time=1760note_on channel=1 note=57 velocity=112 time=160note_on channel=1 note=57 velocity=0 time=160note_on channel=1 note=57 velocity=112 time=160note_on channel=1 note=57 velocity=0 time=160note_on channel=1 note=57 velocity=112 time=160note_on channel=1 note=57 velocity=0 time=160note_on channel=1 note=62 velocity=112 time=160note_on channel=1 note=62 velocity=0 time=960note_on channel=1 note=57 velocity=112 time=0note_on channel=1 note=57 velocity=0 time=160note_on channel=1 note=62 velocity=112 time=160note_on channel=1 note=62 velocity=0 time=160note_on channel=1 note=71 velocity=112 time=160note_on channel=1 note=71 velocity=0 time=160note_on channel=1 note=69 velocity=112 time=160note_on channel=1 note=69 velocity=0 time=1120note_on channel=1 note=66 velocity=112 time=160note_on channel=1 note=66 velocity=0 time=160note_on channel=1 note=69 velocity=112 time=160note_on channel=1 note=69 velocity=0 time=160note_on channel=1 note=69 velocity=112 time=160note_on channel=1 note=69 velocity=0 time=240note_on channel=1 note=68 velocity=112 time=480note_on channel=1 note=68 velocity=0 time=200note_on channel=1 note=68 velocity=112 time=40note_on channel=1 note=68 velocity=0 time=1920note_on channel=1 note=64 velocity=112 time=320note_on channel=1 note=64 velocity=0 time=160note_on channel=1 note=66 velocity=112 time=160note_on channel=1 note=66 velocity=0 time=160note_on channel=1 note=67 velocity=112 time=160note_on channel=1 note=67 velocity=0 time=960note_on channel=1 note=71 velocity=112 time=0note_on channel=1 note=71 velocity=0 time=160note_on channel=1 note=67 velocity=112 time=160note_on channel=1 note=67 velocity=0 time=160note_on channel=1 note=71 velocity=112 time=160note_on channel=1 note=71 velocity=0 time=160note_on channel=1 note=74 velocity=112 time=160note_on channel=1 note=74 velocity=0 time=960note_on channel=1 note=76 velocity=112 time=0note_on channel=1 note=76 velocity=0 time=960control_change channel=1 control=7 value=112 time=0note_on channel=1 note=78 velocity=112 time=0control_change channel=1 control=7 value=111 time=48control_change channel=1 control=7 value=110 time=48control_change channel=1 control=7 value=109 time=48control_change channel=1 control=7 value=108 time=48control_change channel=1 control=7 value=107 time=48control_change channel=1 control=7 value=106 time=48control_change channel=1 control=7 value=105 time=48control_change channel=1 control=7 value=104 time=48control_change channel=1 control=7 value=103 time=48control_change channel=1 control=7 value=102 time=48control_change channel=1 control=7 value=101 time=48control_change channel=1 control=7 value=100 time=48control_change channel=1 control=7 value=99 time=48control_change channel=1 control=7 value=98 time=48control_change channel=1 control=7 value=97 time=48control_change channel=1 control=7 value=96 time=48control_change channel=1 control=7 value=95 time=48control_change channel=1 control=7 value=94 time=48control_change channel=1 control=7 value=93 time=48control_change channel=1 control=7 value=92 time=48control_change channel=1 control=7 value=91 time=48control_change channel=1 control=7 value=90 time=48control_change channel=1 control=7 value=89 time=48control_change channel=1 control=7 value=88 time=48control_change channel=1 control=7 value=87 time=48control_change channel=1 control=7 value=86 time=48control_change channel=1 control=7 value=85 time=48control_change channel=1 control=7 value=84 time=48control_change channel=1 control=7 value=83 time=48control_change channel=1 control=7 value=82 time=48control_change channel=1 control=7 value=81 time=48control_change channel=1 control=7 value=80 time=48control_change channel=1 control=7 value=79 time=48control_change channel=1 control=7 value=78 time=48control_change channel=1 control=7 value=77 time=48control_change channel=1 control=7 value=76 time=48control_change channel=1 control=7 value=75 time=48control_change channel=1 control=7 value=74 time=48control_change channel=1 control=7 value=73 time=48control_change channel=1 control=7 value=72 time=48control_change channel=1 control=7 value=71 time=48control_change channel=1 control=7 value=70 time=48control_change channel=1 control=7 value=69 time=48control_change channel=1 control=7 value=68 time=48control_change channel=1 control=7 value=67 time=48control_change channel=1 control=7 value=66 time=48control_change channel=1 control=7 value=65 time=48control_change channel=1 control=7 value=64 time=48control_change channel=1 control=7 value=63 time=48control_change channel=1 control=7 value=62 time=48control_change channel=1 control=7 value=61 time=48control_change channel=1 control=7 value=60 time=48control_change channel=1 control=7 value=59 time=48control_change channel=1 control=7 value=58 time=48control_change channel=1 control=7 value=57 time=48control_change channel=1 control=7 value=56 time=48control_change channel=1 control=7 value=55 time=48control_change channel=1 control=7 value=54 time=48control_change channel=1 control=7 value=53 time=48control_change channel=1 control=7 value=52 time=48control_change channel=1 control=7 value=51 time=48control_change channel=1 control=7 value=50 time=48control_change channel=1 control=7 value=49 time=48control_change channel=1 control=7 value=48 time=48control_change channel=1 control=7 value=47 time=48control_change channel=1 control=7 value=46 time=48control_change channel=1 control=7 value=45 time=48control_change channel=1 control=7 value=44 time=48control_change channel=1 control=7 value=43 time=48control_change channel=1 control=7 value=42 time=48control_change channel=1 control=7 value=41 time=48control_change channel=1 control=7 value=40 time=48control_change channel=1 control=7 value=39 time=48control_change channel=1 control=7 value=38 time=48control_change channel=1 control=7 value=37 time=48control_change channel=1 control=7 value=36 time=48control_change channel=1 control=7 value=35 time=48control_change channel=1 control=7 value=34 time=48control_change channel=1 control=7 value=33 time=48note_on channel=1 note=78 velocity=0 time=48control_change channel=1 control=7 value=32 time=0control_change channel=1 control=7 value=112 time=480<meta message end_of_track time=1440><meta message track_name name='Square Wave' time=0>program_change channel=2 program=80 time=0control_change channel=2 control=7 value=112 time=960control_change channel=2 control=91 value=0 time=0note_on channel=2 note=50 velocity=96 time=1080note_on channel=2 note=50 velocity=0 time=1440note_on channel=2 note=50 velocity=96 time=0note_on channel=2 note=50 velocity=0 time=180note_on channel=2 note=50 velocity=96 time=60note_on channel=2 note=50 velocity=0 time=180note_on channel=2 note=38 velocity=96 time=60note_on channel=2 note=38 velocity=0 time=900note_on channel=2 note=38 velocity=96 time=60note_on channel=2 note=38 velocity=0 time=960note_on channel=2 note=50 velocity=96 time=0note_on channel=2 note=50 velocity=0 time=300note_on channel=2 note=50 velocity=96 time=420note_on channel=2 note=50 velocity=0 time=180note_on channel=2 note=50 velocity=96 time=60note_on channel=2 note=50 velocity=0 time=2340note_on channel=2 note=52 velocity=96 time=60note_on channel=2 note=52 velocity=0 time=180note_on channel=2 note=54 velocity=96 time=60note_on channel=2 note=54 velocity=0 time=180note_on channel=2 note=55 velocity=96 time=60note_on channel=2 note=55 velocity=0 time=1380note_on channel=2 note=43 velocity=96 time=60note_on channel=2 note=43 velocity=0 time=180note_on channel=2 note=45 velocity=96 time=60note_on channel=2 note=45 velocity=0 time=180note_on channel=2 note=46 velocity=96 time=60note_on channel=2 note=46 velocity=0 time=900note_on channel=2 note=48 velocity=96 time=60note_on channel=2 note=48 velocity=0 time=180note_on channel=2 note=48 velocity=96 time=120note_on channel=2 note=48 velocity=0 time=180note_on channel=2 note=48 velocity=96 time=120note_on channel=2 note=48 velocity=0 time=180note_on channel=2 note=50 velocity=96 time=120note_on channel=2 note=50 velocity=0 time=360note_on channel=2 note=38 velocity=96 time=600note_on channel=2 note=38 velocity=0 time=1920note_on channel=2 note=45 velocity=96 time=60note_on channel=2 note=45 velocity=0 time=900note_on channel=2 note=50 velocity=96 time=0note_on channel=2 note=50 velocity=0 time=1440note_on channel=2 note=50 velocity=96 time=0note_on channel=2 note=50 velocity=0 time=180note_on channel=2 note=50 velocity=96 time=60note_on channel=2 note=50 velocity=0 time=180note_on channel=2 note=38 velocity=96 time=60note_on channel=2 note=38 velocity=0 time=900note_on channel=2 note=38 velocity=96 time=60note_on channel=2 note=38 velocity=0 time=960note_on channel=2 note=50 velocity=96 time=0note_on channel=2 note=50 velocity=0 time=300note_on channel=2 note=50 velocity=96 time=420note_on channel=2 note=50 velocity=0 time=180note_on channel=2 note=50 velocity=96 time=60note_on channel=2 note=50 velocity=0 time=2340note_on channel=2 note=52 velocity=96 time=60note_on channel=2 note=52 velocity=0 time=180note_on channel=2 note=54 velocity=96 time=60note_on channel=2 note=54 velocity=0 time=180note_on channel=2 note=55 velocity=96 time=60note_on channel=2 note=55 velocity=0 time=1380note_on channel=2 note=43 velocity=96 time=60note_on channel=2 note=43 velocity=0 time=180note_on channel=2 note=45 velocity=96 time=60note_on channel=2 note=45 velocity=0 time=180note_on channel=2 note=46 velocity=96 time=60note_on channel=2 note=46 velocity=0 time=900note_on channel=2 note=48 velocity=96 time=60note_on channel=2 note=48 velocity=0 time=180note_on channel=2 note=48 velocity=96 time=120note_on channel=2 note=48 velocity=0 time=180note_on channel=2 note=48 velocity=96 time=120note_on channel=2 note=48 velocity=0 time=180note_on channel=2 note=50 velocity=96 time=120note_on channel=2 note=50 velocity=0 time=300note_on channel=2 note=38 velocity=64 time=420note_on channel=2 note=38 velocity=0 time=240note_on channel=2 note=38 velocity=96 time=0note_on channel=2 note=38 velocity=0 time=240note_on channel=2 note=38 velocity=96 time=720note_on channel=2 note=38 velocity=0 time=240note_on channel=2 note=38 velocity=96 time=720note_on channel=2 note=38 velocity=0 time=240note_on channel=2 note=54 velocity=80 time=720note_on channel=2 note=54 velocity=0 time=960note_on channel=2 note=54 velocity=80 time=0note_on channel=2 note=54 velocity=0 time=160note_on channel=2 note=54 velocity=80 time=160note_on channel=2 note=54 velocity=0 time=160note_on channel=2 note=67 velocity=80 time=160note_on channel=2 note=67 velocity=0 time=160note_on channel=2 note=66 velocity=80 time=160note_on channel=2 note=66 velocity=0 time=1120note_on channel=2 note=57 velocity=80 time=160note_on channel=2 note=57 velocity=0 time=160note_on channel=2 note=62 velocity=80 time=160note_on channel=2 note=62 velocity=0 time=160note_on channel=2 note=59 velocity=80 time=160note_on channel=2 note=59 velocity=0 time=960note_on channel=2 note=56 velocity=80 time=0note_on channel=2 note=56 velocity=0 time=160note_on channel=2 note=59 velocity=80 time=160note_on channel=2 note=59 velocity=0 time=160note_on channel=2 note=64 velocity=80 time=160note_on channel=2 note=64 velocity=0 time=160note_on channel=2 note=59 velocity=80 time=160note_on channel=2 note=59 velocity=0 time=880note_on channel=2 note=56 velocity=80 time=80note_on channel=2 note=56 velocity=0 time=880note_on channel=2 note=59 velocity=80 time=80note_on channel=2 note=59 velocity=0 time=960note_on channel=2 note=55 velocity=80 time=0note_on channel=2 note=55 velocity=0 time=160note_on channel=2 note=59 velocity=80 time=160note_on channel=2 note=59 velocity=0 time=160note_on channel=2 note=62 velocity=80 time=160note_on channel=2 note=62 velocity=0 time=160note_on channel=2 note=58 velocity=80 time=160note_on channel=2 note=58 velocity=0 time=1200note_on channel=2 note=57 velocity=80 time=400note_on channel=2 note=57 velocity=0 time=160note_on channel=2 note=62 velocity=80 time=160note_on channel=2 note=62 velocity=0 time=240note_on channel=2 note=57 velocity=80 time=240note_on channel=2 note=57 velocity=0 time=160note_on channel=2 note=57 velocity=80 time=80note_on channel=2 note=57 velocity=0 time=160note_on channel=2 note=57 velocity=80 time=80note_on channel=2 note=57 velocity=0 time=1760note_on channel=2 note=55 velocity=80 time=160note_on channel=2 note=55 velocity=0 time=160note_on channel=2 note=52 velocity=80 time=160note_on channel=2 note=52 velocity=0 time=160note_on channel=2 note=55 velocity=80 time=160note_on channel=2 note=55 velocity=0 time=160note_on channel=2 note=54 velocity=80 time=160note_on channel=2 note=54 velocity=0 time=960note_on channel=2 note=54 velocity=80 time=0note_on channel=2 note=54 velocity=0 time=160note_on channel=2 note=54 velocity=80 time=160note_on channel=2 note=54 velocity=0 time=160note_on channel=2 note=67 velocity=80 time=160note_on channel=2 note=67 velocity=0 time=160note_on channel=2 note=66 velocity=80 time=160note_on channel=2 note=66 velocity=0 time=1120note_on channel=2 note=57 velocity=80 time=160note_on channel=2 note=57 velocity=0 time=160note_on channel=2 note=62 velocity=80 time=160note_on channel=2 note=62 velocity=0 time=160note_on channel=2 note=59 velocity=80 time=160note_on channel=2 note=59 velocity=0 time=960note_on channel=2 note=56 velocity=80 time=0note_on channel=2 note=56 velocity=0 time=160note_on channel=2 note=59 velocity=80 time=160note_on channel=2 note=59 velocity=0 time=160note_on channel=2 note=64 velocity=80 time=160note_on channel=2 note=64 velocity=0 time=160note_on channel=2 note=59 velocity=80 time=160note_on channel=2 note=59 velocity=0 time=880note_on channel=2 note=56 velocity=80 time=80note_on channel=2 note=56 velocity=0 time=880note_on channel=2 note=59 velocity=80 time=80note_on channel=2 note=59 velocity=0 time=960note_on channel=2 note=55 velocity=80 time=0note_on channel=2 note=55 velocity=0 time=160note_on channel=2 note=59 velocity=80 time=160note_on channel=2 note=59 velocity=0 time=160note_on channel=2 note=62 velocity=80 time=160note_on channel=2 note=62 velocity=0 time=160note_on channel=2 note=58 velocity=80 time=160note_on channel=2 note=58 velocity=0 time=1200note_on channel=2 note=58 velocity=80 time=80note_on channel=2 note=58 velocity=0 time=160note_on channel=2 note=58 velocity=80 time=160note_on channel=2 note=58 velocity=0 time=160note_on channel=2 note=57 velocity=80 time=160note_on channel=2 note=57 velocity=0 time=160note_on channel=2 note=57 velocity=80 time=480note_on channel=2 note=57 velocity=0 time=160note_on channel=2 note=54 velocity=80 time=160note_on channel=2 note=54 velocity=0 time=160note_on channel=2 note=50 velocity=80 time=160note_on channel=2 note=50 velocity=0 time=160note_on channel=2 note=57 velocity=80 time=160note_on channel=2 note=57 velocity=0 time=160note_on channel=2 note=54 velocity=80 time=160note_on channel=2 note=54 velocity=0 time=880note_on channel=2 note=55 velocity=80 time=80note_on channel=2 note=55 velocity=0 time=160note_on channel=2 note=52 velocity=80 time=160note_on channel=2 note=52 velocity=0 time=160note_on channel=2 note=55 velocity=80 time=160note_on channel=2 note=55 velocity=0 time=160note_on channel=2 note=54 velocity=80 time=160note_on channel=2 note=54 velocity=0 time=960note_on channel=2 note=54 velocity=80 time=0note_on channel=2 note=54 velocity=0 time=160note_on channel=2 note=54 velocity=80 time=160note_on channel=2 note=54 velocity=0 time=160note_on channel=2 note=67 velocity=80 time=160note_on channel=2 note=67 velocity=0 time=160note_on channel=2 note=66 velocity=80 time=160note_on channel=2 note=66 velocity=0 time=1120note_on channel=2 note=57 velocity=80 time=160note_on channel=2 note=57 velocity=0 time=160note_on channel=2 note=62 velocity=80 time=160note_on channel=2 note=62 velocity=0 time=160note_on channel=2 note=59 velocity=80 time=160note_on channel=2 note=59 velocity=0 time=960note_on channel=2 note=56 velocity=80 time=0note_on channel=2 note=56 velocity=0 time=160note_on channel=2 note=59 velocity=80 time=160note_on channel=2 note=59 velocity=0 time=160note_on channel=2 note=64 velocity=80 time=160note_on channel=2 note=64 velocity=0 time=160note_on channel=2 note=59 velocity=80 time=160note_on channel=2 note=59 velocity=0 time=880note_on channel=2 note=56 velocity=80 time=80note_on channel=2 note=56 velocity=0 time=880note_on channel=2 note=59 velocity=80 time=80note_on channel=2 note=59 velocity=0 time=960note_on channel=2 note=55 velocity=80 time=0note_on channel=2 note=55 velocity=0 time=160note_on channel=2 note=59 velocity=80 time=160note_on channel=2 note=59 velocity=0 time=160note_on channel=2 note=62 velocity=80 time=160note_on channel=2 note=62 velocity=0 time=160note_on channel=2 note=58 velocity=80 time=160note_on channel=2 note=58 velocity=0 time=1200note_on channel=2 note=57 velocity=80 time=400note_on channel=2 note=57 velocity=0 time=160note_on channel=2 note=62 velocity=80 time=160note_on channel=2 note=62 velocity=0 time=240note_on channel=2 note=57 velocity=80 time=240note_on channel=2 note=57 velocity=0 time=160note_on channel=2 note=57 velocity=80 time=80note_on channel=2 note=57 velocity=0 time=160note_on channel=2 note=57 velocity=80 time=80note_on channel=2 note=57 velocity=0 time=1760note_on channel=2 note=55 velocity=80 time=160note_on channel=2 note=55 velocity=0 time=160note_on channel=2 note=52 velocity=80 time=160note_on channel=2 note=52 velocity=0 time=160note_on channel=2 note=55 velocity=80 time=160note_on channel=2 note=55 velocity=0 time=160note_on channel=2 note=54 velocity=80 time=160note_on channel=2 note=54 velocity=0 time=960note_on channel=2 note=54 velocity=80 time=0note_on channel=2 note=54 velocity=0 time=160note_on channel=2 note=54 velocity=80 time=160note_on channel=2 note=54 velocity=0 time=160note_on channel=2 note=67 velocity=80 time=160note_on channel=2 note=67 velocity=0 time=160note_on channel=2 note=66 velocity=80 time=160note_on channel=2 note=66 velocity=0 time=1120note_on channel=2 note=57 velocity=80 time=160note_on channel=2 note=57 velocity=0 time=160note_on channel=2 note=62 velocity=80 time=160note_on channel=2 note=62 velocity=0 time=160note_on channel=2 note=59 velocity=80 time=160note_on channel=2 note=59 velocity=0 time=960note_on channel=2 note=56 velocity=80 time=0note_on channel=2 note=56 velocity=0 time=160note_on channel=2 note=59 velocity=80 time=160note_on channel=2 note=59 velocity=0 time=160note_on channel=2 note=64 velocity=80 time=160note_on channel=2 note=64 velocity=0 time=160note_on channel=2 note=59 velocity=80 time=160note_on channel=2 note=59 velocity=0 time=880note_on channel=2 note=56 velocity=80 time=80note_on channel=2 note=56 velocity=0 time=880note_on channel=2 note=59 velocity=80 time=80note_on channel=2 note=59 velocity=0 time=960note_on channel=2 note=55 velocity=80 time=0note_on channel=2 note=55 velocity=0 time=160note_on channel=2 note=59 velocity=80 time=160note_on channel=2 note=59 velocity=0 time=160note_on channel=2 note=62 velocity=80 time=160note_on channel=2 note=62 velocity=0 time=160note_on channel=2 note=58 velocity=80 time=160note_on channel=2 note=58 velocity=0 time=1200note_on channel=2 note=58 velocity=80 time=80note_on channel=2 note=58 velocity=0 time=160note_on channel=2 note=58 velocity=80 time=160note_on channel=2 note=58 velocity=0 time=160note_on channel=2 note=57 velocity=80 time=160note_on channel=2 note=57 velocity=0 time=160note_on channel=2 note=57 velocity=80 time=480note_on channel=2 note=57 velocity=0 time=160note_on channel=2 note=54 velocity=80 time=160note_on channel=2 note=54 velocity=0 time=160note_on channel=2 note=50 velocity=80 time=160note_on channel=2 note=50 velocity=0 time=160note_on channel=2 note=57 velocity=80 time=160note_on channel=2 note=57 velocity=0 time=160note_on channel=2 note=54 velocity=80 time=160note_on channel=2 note=54 velocity=0 time=480note_on channel=2 note=54 velocity=80 time=160note_on channel=2 note=54 velocity=0 time=160note_on channel=2 note=57 velocity=80 time=160note_on channel=2 note=57 velocity=0 time=160note_on channel=2 note=62 velocity=80 time=160note_on channel=2 note=62 velocity=0 time=160note_on channel=2 note=66 velocity=80 time=160note_on channel=2 note=66 velocity=0 time=160note_on channel=2 note=54 velocity=80 time=30880note_on channel=2 note=54 velocity=0 time=960note_on channel=2 note=54 velocity=80 time=0note_on channel=2 note=54 velocity=0 time=160note_on channel=2 note=54 velocity=80 time=160note_on channel=2 note=54 velocity=0 time=160note_on channel=2 note=67 velocity=80 time=160note_on channel=2 note=67 velocity=0 time=160note_on channel=2 note=66 velocity=80 time=160note_on channel=2 note=66 velocity=0 time=1120note_on channel=2 note=57 velocity=80 time=160note_on channel=2 note=57 velocity=0 time=160note_on channel=2 note=62 velocity=80 time=160note_on channel=2 note=62 velocity=0 time=160note_on channel=2 note=59 velocity=80 time=160note_on channel=2 note=59 velocity=0 time=960note_on channel=2 note=56 velocity=80 time=0note_on channel=2 note=56 velocity=0 time=160note_on channel=2 note=59 velocity=80 time=160note_on channel=2 note=59 velocity=0 time=160note_on channel=2 note=64 velocity=80 time=160note_on channel=2 note=64 velocity=0 time=160note_on channel=2 note=59 velocity=80 time=160note_on channel=2 note=59 velocity=0 time=880note_on channel=2 note=56 velocity=80 time=80note_on channel=2 note=56 velocity=0 time=880note_on channel=2 note=59 velocity=80 time=80note_on channel=2 note=59 velocity=0 time=960note_on channel=2 note=55 velocity=80 time=0note_on channel=2 note=55 velocity=0 time=160note_on channel=2 note=59 velocity=80 time=160note_on channel=2 note=59 velocity=0 time=160note_on channel=2 note=62 velocity=80 time=160note_on channel=2 note=62 velocity=0 time=160note_on channel=2 note=58 velocity=80 time=160note_on channel=2 note=58 velocity=0 time=1200note_on channel=2 note=57 velocity=80 time=400note_on channel=2 note=57 velocity=0 time=160note_on channel=2 note=62 velocity=80 time=160note_on channel=2 note=62 velocity=0 time=240note_on channel=2 note=57 velocity=80 time=240note_on channel=2 note=57 velocity=0 time=160note_on channel=2 note=57 velocity=80 time=80note_on channel=2 note=57 velocity=0 time=160note_on channel=2 note=57 velocity=80 time=80note_on channel=2 note=57 velocity=0 time=1760note_on channel=2 note=55 velocity=80 time=160note_on channel=2 note=55 velocity=0 time=160note_on channel=2 note=52 velocity=80 time=160note_on channel=2 note=52 velocity=0 time=160note_on channel=2 note=55 velocity=80 time=160note_on channel=2 note=55 velocity=0 time=160note_on channel=2 note=54 velocity=80 time=160note_on channel=2 note=54 velocity=0 time=960note_on channel=2 note=54 velocity=80 time=0note_on channel=2 note=54 velocity=0 time=160note_on channel=2 note=54 velocity=80 time=160note_on channel=2 note=54 velocity=0 time=160note_on channel=2 note=67 velocity=80 time=160note_on channel=2 note=67 velocity=0 time=160note_on channel=2 note=66 velocity=80 time=160note_on channel=2 note=66 velocity=0 time=1120note_on channel=2 note=57 velocity=80 time=160note_on channel=2 note=57 velocity=0 time=160note_on channel=2 note=62 velocity=80 time=160note_on channel=2 note=62 velocity=0 time=160note_on channel=2 note=59 velocity=80 time=160note_on channel=2 note=59 velocity=0 time=960note_on channel=2 note=56 velocity=80 time=0note_on channel=2 note=56 velocity=0 time=160note_on channel=2 note=59 velocity=80 time=160note_on channel=2 note=59 velocity=0 time=160note_on channel=2 note=64 velocity=80 time=160note_on channel=2 note=64 velocity=0 time=160note_on channel=2 note=59 velocity=80 time=160note_on channel=2 note=59 velocity=0 time=880note_on channel=2 note=56 velocity=80 time=80note_on channel=2 note=56 velocity=0 time=880note_on channel=2 note=59 velocity=80 time=80note_on channel=2 note=59 velocity=0 time=960note_on channel=2 note=62 velocity=80 time=0note_on channel=2 note=62 velocity=0 time=160note_on channel=2 note=59 velocity=80 time=160note_on channel=2 note=59 velocity=0 time=160note_on channel=2 note=62 velocity=80 time=160note_on channel=2 note=62 velocity=0 time=160note_on channel=2 note=65 velocity=80 time=160note_on channel=2 note=65 velocity=0 time=960note_on channel=2 note=67 velocity=80 time=0note_on channel=2 note=67 velocity=0 time=960note_on channel=2 note=69 velocity=80 time=0note_on channel=2 note=69 velocity=0 time=1920<meta message end_of_track time=3840><meta message track_name name='Sawtooth Wave' time=0>program_change channel=3 program=81 time=0control_change channel=3 control=7 value=112 time=960note_on channel=3 note=50 velocity=96 time=31680note_on channel=3 note=50 velocity=0 time=960note_on channel=3 note=38 velocity=96 time=0note_on channel=3 note=38 velocity=0 time=240note_on channel=3 note=38 velocity=96 time=80note_on channel=3 note=38 velocity=0 time=240note_on channel=3 note=38 velocity=96 time=80note_on channel=3 note=38 velocity=0 time=240note_on channel=3 note=50 velocity=96 time=80note_on channel=3 note=50 velocity=0 time=960note_on channel=3 note=38 velocity=96 time=0note_on channel=3 note=38 velocity=0 time=240note_on channel=3 note=38 velocity=96 time=80note_on channel=3 note=38 velocity=0 time=240note_on channel=3 note=38 velocity=96 time=80note_on channel=3 note=38 velocity=0 time=240note_on channel=3 note=50 velocity=96 time=80note_on channel=3 note=50 velocity=0 time=960note_on channel=3 note=38 velocity=96 time=0note_on channel=3 note=38 velocity=0 time=240note_on channel=3 note=38 velocity=96 time=80note_on channel=3 note=38 velocity=0 time=240note_on channel=3 note=38 velocity=96 time=80note_on channel=3 note=38 velocity=0 time=240note_on channel=3 note=50 velocity=96 time=80note_on channel=3 note=50 velocity=0 time=960note_on channel=3 note=38 velocity=96 time=0note_on channel=3 note=38 velocity=0 time=240note_on channel=3 note=38 velocity=96 time=80note_on channel=3 note=38 velocity=0 time=240note_on channel=3 note=38 velocity=96 time=80note_on channel=3 note=38 velocity=0 time=240note_on channel=3 note=50 velocity=96 time=80note_on channel=3 note=50 velocity=0 time=960note_on channel=3 note=38 velocity=96 time=0note_on channel=3 note=38 velocity=0 time=240note_on channel=3 note=38 velocity=96 time=80note_on channel=3 note=38 velocity=0 time=240note_on channel=3 note=38 velocity=96 time=80note_on channel=3 note=38 velocity=0 time=240note_on channel=3 note=50 velocity=96 time=80note_on channel=3 note=50 velocity=0 time=960note_on channel=3 note=38 velocity=96 time=0note_on channel=3 note=38 velocity=0 time=240note_on channel=3 note=38 velocity=96 time=80note_on channel=3 note=38 velocity=0 time=240note_on channel=3 note=38 velocity=96 time=80note_on channel=3 note=38 velocity=0 time=240note_on channel=3 note=50 velocity=96 time=80note_on channel=3 note=50 velocity=0 time=240note_on channel=3 note=38 velocity=96 time=240note_on channel=3 note=38 velocity=0 time=240note_on channel=3 note=38 velocity=96 time=0note_on channel=3 note=38 velocity=0 time=240note_on channel=3 note=38 velocity=96 time=0note_on channel=3 note=38 velocity=0 time=240note_on channel=3 note=38 velocity=96 time=80note_on channel=3 note=38 velocity=0 time=240note_on channel=3 note=38 velocity=96 time=80note_on channel=3 note=38 velocity=0 time=240note_on channel=3 note=50 velocity=96 time=80note_on channel=3 note=50 velocity=0 time=240note_on channel=3 note=38 velocity=96 time=400note_on channel=3 note=38 velocity=0 time=240note_on channel=3 note=45 velocity=96 time=80note_on channel=3 note=45 velocity=0 time=240note_on channel=3 note=45 velocity=96 time=80note_on channel=3 note=45 velocity=0 time=240note_on channel=3 note=45 velocity=96 time=80note_on channel=3 note=45 velocity=0 time=240note_on channel=3 note=50 velocity=96 time=80note_on channel=3 note=50 velocity=0 time=960note_on channel=3 note=38 velocity=96 time=0note_on channel=3 note=38 velocity=0 time=240note_on channel=3 note=38 velocity=96 time=80note_on channel=3 note=38 velocity=0 time=240note_on channel=3 note=38 velocity=96 time=80note_on channel=3 note=38 velocity=0 time=240note_on channel=3 note=50 velocity=96 time=80note_on channel=3 note=50 velocity=0 time=960note_on channel=3 note=38 velocity=96 time=0note_on channel=3 note=38 velocity=0 time=240note_on channel=3 note=38 velocity=96 time=80note_on channel=3 note=38 velocity=0 time=240note_on channel=3 note=38 velocity=96 time=80note_on channel=3 note=38 velocity=0 time=240note_on channel=3 note=50 velocity=96 time=80note_on channel=3 note=50 velocity=0 time=960note_on channel=3 note=38 velocity=96 time=0note_on channel=3 note=38 velocity=0 time=240note_on channel=3 note=38 velocity=96 time=80note_on channel=3 note=38 velocity=0 time=240note_on channel=3 note=38 velocity=96 time=80note_on channel=3 note=38 velocity=0 time=240note_on channel=3 note=50 velocity=96 time=80note_on channel=3 note=50 velocity=0 time=960note_on channel=3 note=38 velocity=96 time=0note_on channel=3 note=38 velocity=0 time=240note_on channel=3 note=38 velocity=96 time=80note_on channel=3 note=38 velocity=0 time=240note_on channel=3 note=38 velocity=96 time=80note_on channel=3 note=38 velocity=0 time=240note_on channel=3 note=50 velocity=96 time=80note_on channel=3 note=50 velocity=0 time=960note_on channel=3 note=38 velocity=96 time=0note_on channel=3 note=38 velocity=0 time=240note_on channel=3 note=38 velocity=96 time=80note_on channel=3 note=38 velocity=0 time=240note_on channel=3 note=38 velocity=96 time=80note_on channel=3 note=38 velocity=0 time=240note_on channel=3 note=50 velocity=96 time=80note_on channel=3 note=50 velocity=0 time=960note_on channel=3 note=38 velocity=96 time=0note_on channel=3 note=38 velocity=0 time=240note_on channel=3 note=38 velocity=96 time=80note_on channel=3 note=38 velocity=0 time=240note_on channel=3 note=38 velocity=96 time=80note_on channel=3 note=38 velocity=0 time=240note_on channel=3 note=50 velocity=96 time=80note_on channel=3 note=50 velocity=0 time=960note_on channel=3 note=38 velocity=96 time=0note_on channel=3 note=38 velocity=0 time=240note_on channel=3 note=38 velocity=96 time=80note_on channel=3 note=38 velocity=0 time=240note_on channel=3 note=38 velocity=96 time=80note_on channel=3 note=38 velocity=0 time=240note_on channel=3 note=38 velocity=96 time=80note_on channel=3 note=38 velocity=0 time=960note_on channel=3 note=38 velocity=96 time=0note_on channel=3 note=38 velocity=0 time=240note_on channel=3 note=38 velocity=96 time=80note_on channel=3 note=38 velocity=0 time=240note_on channel=3 note=38 velocity=96 time=80note_on channel=3 note=38 velocity=0 time=240note_on channel=3 note=50 velocity=96 time=80note_on channel=3 note=50 velocity=0 time=960note_on channel=3 note=38 velocity=96 time=0note_on channel=3 note=38 velocity=0 time=240note_on channel=3 note=38 velocity=96 time=80note_on channel=3 note=38 velocity=0 time=240note_on channel=3 note=38 velocity=96 time=80note_on channel=3 note=38 velocity=0 time=240note_on channel=3 note=50 velocity=96 time=80note_on channel=3 note=50 velocity=0 time=960note_on channel=3 note=38 velocity=96 time=0note_on channel=3 note=38 velocity=0 time=240note_on channel=3 note=38 velocity=96 time=80note_on channel=3 note=38 velocity=0 time=240note_on channel=3 note=38 velocity=96 time=80note_on channel=3 note=38 velocity=0 time=240note_on channel=3 note=50 velocity=96 time=80note_on channel=3 note=50 velocity=0 time=960note_on channel=3 note=38 velocity=96 time=0note_on channel=3 note=38 velocity=0 time=240note_on channel=3 note=38 velocity=96 time=80note_on channel=3 note=38 velocity=0 time=240note_on channel=3 note=38 velocity=96 time=80note_on channel=3 note=38 velocity=0 time=240note_on channel=3 note=50 velocity=96 time=80note_on channel=3 note=50 velocity=0 time=960note_on channel=3 note=38 velocity=96 time=0note_on channel=3 note=38 velocity=0 time=240note_on channel=3 note=38 velocity=96 time=80note_on channel=3 note=38 velocity=0 time=240note_on channel=3 note=38 velocity=96 time=80note_on channel=3 note=38 velocity=0 time=240note_on channel=3 note=50 velocity=96 time=80note_on channel=3 note=50 velocity=0 time=960note_on channel=3 note=38 velocity=96 time=0note_on channel=3 note=38 velocity=0 time=240note_on channel=3 note=38 velocity=96 time=80note_on channel=3 note=38 velocity=0 time=240note_on channel=3 note=38 velocity=96 time=80note_on channel=3 note=38 velocity=0 time=240note_on channel=3 note=50 velocity=96 time=80note_on channel=3 note=50 velocity=0 time=960note_on channel=3 note=38 velocity=96 time=0note_on channel=3 note=38 velocity=0 time=240note_on channel=3 note=38 velocity=96 time=80note_on channel=3 note=38 velocity=0 time=240note_on channel=3 note=38 velocity=96 time=80note_on channel=3 note=38 velocity=0 time=240note_on channel=3 note=50 velocity=96 time=80note_on channel=3 note=50 velocity=0 time=240note_on channel=3 note=38 velocity=96 time=240note_on channel=3 note=38 velocity=0 time=240note_on channel=3 note=38 velocity=96 time=0note_on channel=3 note=38 velocity=0 time=240note_on channel=3 note=38 velocity=96 time=0note_on channel=3 note=38 velocity=0 time=240note_on channel=3 note=38 velocity=96 time=80note_on channel=3 note=38 velocity=0 time=240note_on channel=3 note=38 velocity=96 time=80note_on channel=3 note=38 velocity=0 time=240note_on channel=3 note=50 velocity=96 time=80note_on channel=3 note=50 velocity=0 time=240note_on channel=3 note=38 velocity=96 time=400note_on channel=3 note=38 velocity=0 time=240note_on channel=3 note=45 velocity=96 time=80note_on channel=3 note=45 velocity=0 time=240note_on channel=3 note=45 velocity=96 time=80note_on channel=3 note=45 velocity=0 time=240note_on channel=3 note=45 velocity=96 time=80note_on channel=3 note=45 velocity=0 time=240note_on channel=3 note=50 velocity=96 time=80note_on channel=3 note=50 velocity=0 time=960note_on channel=3 note=38 velocity=96 time=0note_on channel=3 note=38 velocity=0 time=240note_on channel=3 note=38 velocity=96 time=80note_on channel=3 note=38 velocity=0 time=240note_on channel=3 note=38 velocity=96 time=80note_on channel=3 note=38 velocity=0 time=240note_on channel=3 note=50 velocity=96 time=80note_on channel=3 note=50 velocity=0 time=960note_on channel=3 note=38 velocity=96 time=0note_on channel=3 note=38 velocity=0 time=240note_on channel=3 note=38 velocity=96 time=80note_on channel=3 note=38 velocity=0 time=240note_on channel=3 note=38 velocity=96 time=80note_on channel=3 note=38 velocity=0 time=240note_on channel=3 note=50 velocity=96 time=80note_on channel=3 note=50 velocity=0 time=960note_on channel=3 note=38 velocity=96 time=0note_on channel=3 note=38 velocity=0 time=240note_on channel=3 note=38 velocity=96 time=80note_on channel=3 note=38 velocity=0 time=240note_on channel=3 note=38 velocity=96 time=80note_on channel=3 note=38 velocity=0 time=240note_on channel=3 note=50 velocity=96 time=80note_on channel=3 note=50 velocity=0 time=960note_on channel=3 note=38 velocity=96 time=0note_on channel=3 note=38 velocity=0 time=240note_on channel=3 note=38 velocity=96 time=80note_on channel=3 note=38 velocity=0 time=240note_on channel=3 note=38 velocity=96 time=80note_on channel=3 note=38 velocity=0 time=240note_on channel=3 note=50 velocity=96 time=80note_on channel=3 note=50 velocity=0 time=960note_on channel=3 note=38 velocity=96 time=0note_on channel=3 note=38 velocity=0 time=240note_on channel=3 note=38 velocity=96 time=80note_on channel=3 note=38 velocity=0 time=240note_on channel=3 note=38 velocity=96 time=80note_on channel=3 note=38 velocity=0 time=240note_on channel=3 note=50 velocity=96 time=80note_on channel=3 note=50 velocity=0 time=960note_on channel=3 note=38 velocity=96 time=0note_on channel=3 note=38 velocity=0 time=240note_on channel=3 note=38 velocity=96 time=80note_on channel=3 note=38 velocity=0 time=240note_on channel=3 note=38 velocity=96 time=80note_on channel=3 note=38 velocity=0 time=240note_on channel=3 note=50 velocity=96 time=80note_on channel=3 note=50 velocity=0 time=960note_on channel=3 note=38 velocity=96 time=0note_on channel=3 note=38 velocity=0 time=240note_on channel=3 note=38 velocity=96 time=80note_on channel=3 note=38 velocity=0 time=240note_on channel=3 note=38 velocity=96 time=80note_on channel=3 note=38 velocity=0 time=240note_on channel=3 note=38 velocity=96 time=80note_on channel=3 note=38 velocity=0 time=880note_on channel=3 note=50 velocity=96 time=80note_on channel=3 note=50 velocity=0 time=880note_on channel=3 note=46 velocity=112 time=80note_on channel=3 note=46 velocity=0 time=480note_on channel=3 note=46 velocity=112 time=480note_on channel=3 note=46 velocity=0 time=480note_on channel=3 note=41 velocity=112 time=240note_on channel=3 note=41 velocity=0 time=160note_on channel=3 note=46 velocity=112 time=80note_on channel=3 note=46 velocity=0 time=160note_on channel=3 note=46 velocity=112 time=320note_on channel=3 note=46 velocity=0 time=160note_on channel=3 note=58 velocity=112 time=320note_on channel=3 note=58 velocity=0 time=160note_on channel=3 note=46 velocity=112 time=320note_on channel=3 note=46 velocity=0 time=160note_on channel=3 note=53 velocity=112 time=320note_on channel=3 note=53 velocity=0 time=160note_on channel=3 note=41 velocity=112 time=560note_on channel=3 note=41 velocity=0 time=160note_on channel=3 note=41 velocity=112 time=80note_on channel=3 note=41 velocity=0 time=880note_on channel=3 note=53 velocity=112 time=80note_on channel=3 note=53 velocity=0 time=480note_on channel=3 note=53 velocity=112 time=480note_on channel=3 note=53 velocity=0 time=160note_on channel=3 note=41 velocity=112 time=320note_on channel=3 note=41 velocity=0 time=160note_on channel=3 note=43 velocity=112 time=320note_on channel=3 note=43 velocity=0 time=480note_on channel=3 note=43 velocity=112 time=480note_on channel=3 note=43 velocity=0 time=480note_on channel=3 note=38 velocity=112 time=160note_on channel=3 note=38 velocity=0 time=160note_on channel=3 note=43 velocity=112 time=160note_on channel=3 note=43 velocity=0 time=160note_on channel=3 note=43 velocity=112 time=320note_on channel=3 note=43 velocity=0 time=160note_on channel=3 note=46 velocity=112 time=320note_on channel=3 note=46 velocity=0 time=160note_on channel=3 note=48 velocity=112 time=320note_on channel=3 note=48 velocity=0 time=160note_on channel=3 note=50 velocity=112 time=320note_on channel=3 note=50 velocity=0 time=160note_on channel=3 note=38 velocity=112 time=800note_on channel=3 note=38 velocity=0 time=160note_on channel=3 note=38 velocity=112 time=560note_on channel=3 note=38 velocity=0 time=160note_on channel=3 note=50 velocity=112 time=80note_on channel=3 note=50 velocity=0 time=880note_on channel=3 note=50 velocity=112 time=80note_on channel=3 note=50 velocity=0 time=160note_on channel=3 note=50 velocity=112 time=160note_on channel=3 note=50 velocity=0 time=160note_on channel=3 note=48 velocity=112 time=160note_on channel=3 note=48 velocity=0 time=160note_on channel=3 note=46 velocity=112 time=160note_on channel=3 note=46 velocity=0 time=480note_on channel=3 note=46 velocity=112 time=480note_on channel=3 note=46 velocity=0 time=480note_on channel=3 note=41 velocity=112 time=240note_on channel=3 note=41 velocity=0 time=160note_on channel=3 note=46 velocity=112 time=80note_on channel=3 note=46 velocity=0 time=160note_on channel=3 note=46 velocity=112 time=320note_on channel=3 note=46 velocity=0 time=160note_on channel=3 note=58 velocity=112 time=320note_on channel=3 note=58 velocity=0 time=160note_on channel=3 note=46 velocity=112 time=320note_on channel=3 note=46 velocity=0 time=160note_on channel=3 note=53 velocity=112 time=320note_on channel=3 note=53 velocity=0 time=160note_on channel=3 note=41 velocity=112 time=560note_on channel=3 note=41 velocity=0 time=160note_on channel=3 note=41 velocity=112 time=80note_on channel=3 note=41 velocity=0 time=880note_on channel=3 note=53 velocity=112 time=80note_on channel=3 note=53 velocity=0 time=480note_on channel=3 note=53 velocity=112 time=480note_on channel=3 note=53 velocity=0 time=160note_on channel=3 note=41 velocity=112 time=320note_on channel=3 note=41 velocity=0 time=160note_on channel=3 note=52 velocity=112 time=320note_on channel=3 note=52 velocity=0 time=400note_on channel=3 note=40 velocity=112 time=560note_on channel=3 note=40 velocity=0 time=640note_on channel=3 note=52 velocity=112 time=80note_on channel=3 note=52 velocity=0 time=160note_on channel=3 note=52 velocity=112 time=80note_on channel=3 note=52 velocity=0 time=880note_on channel=3 note=40 velocity=112 time=80note_on channel=3 note=40 velocity=0 time=160note_on channel=3 note=52 velocity=112 time=320note_on channel=3 note=52 velocity=0 time=160note_on channel=3 note=45 velocity=112 time=320note_on channel=3 note=45 velocity=0 time=160note_on channel=3 note=45 velocity=112 time=560note_on channel=3 note=45 velocity=0 time=160note_on channel=3 note=45 velocity=112 time=80note_on channel=3 note=45 velocity=0 time=800note_on channel=3 note=45 velocity=112 time=160note_on channel=3 note=45 velocity=0 time=800note_on channel=3 note=45 velocity=112 time=160note_on channel=3 note=45 velocity=0 time=160note_on channel=3 note=45 velocity=112 time=480note_on channel=3 note=45 velocity=0 time=160note_on channel=3 note=50 velocity=96 time=160note_on channel=3 note=50 velocity=0 time=960note_on channel=3 note=38 velocity=96 time=0note_on channel=3 note=38 velocity=0 time=240note_on channel=3 note=38 velocity=96 time=80note_on channel=3 note=38 velocity=0 time=240note_on channel=3 note=38 velocity=96 time=80note_on channel=3 note=38 velocity=0 time=240note_on channel=3 note=50 velocity=96 time=80note_on channel=3 note=50 velocity=0 time=960note_on channel=3 note=38 velocity=96 time=0note_on channel=3 note=38 velocity=0 time=240note_on channel=3 note=38 velocity=96 time=80note_on channel=3 note=38 velocity=0 time=240note_on channel=3 note=38 velocity=96 time=80note_on channel=3 note=38 velocity=0 time=240note_on channel=3 note=50 velocity=96 time=80note_on channel=3 note=50 velocity=0 time=960note_on channel=3 note=38 velocity=96 time=0note_on channel=3 note=38 velocity=0 time=240note_on channel=3 note=38 velocity=96 time=80note_on channel=3 note=38 velocity=0 time=240note_on channel=3 note=38 velocity=96 time=80note_on channel=3 note=38 velocity=0 time=240note_on channel=3 note=50 velocity=96 time=80note_on channel=3 note=50 velocity=0 time=960note_on channel=3 note=38 velocity=96 time=0note_on channel=3 note=38 velocity=0 time=240note_on channel=3 note=38 velocity=96 time=80note_on channel=3 note=38 velocity=0 time=240note_on channel=3 note=38 velocity=96 time=80note_on channel=3 note=38 velocity=0 time=240note_on channel=3 note=50 velocity=96 time=80note_on channel=3 note=50 velocity=0 time=960note_on channel=3 note=38 velocity=96 time=0note_on channel=3 note=38 velocity=0 time=240note_on channel=3 note=38 velocity=96 time=80note_on channel=3 note=38 velocity=0 time=240note_on channel=3 note=38 velocity=96 time=80note_on channel=3 note=38 velocity=0 time=240note_on channel=3 note=50 velocity=96 time=80note_on channel=3 note=50 velocity=0 time=960note_on channel=3 note=38 velocity=96 time=0note_on channel=3 note=38 velocity=0 time=240note_on channel=3 note=38 velocity=96 time=80note_on channel=3 note=38 velocity=0 time=240note_on channel=3 note=38 velocity=96 time=80note_on channel=3 note=38 velocity=0 time=240note_on channel=3 note=50 velocity=96 time=80note_on channel=3 note=50 velocity=0 time=240note_on channel=3 note=38 velocity=96 time=240note_on channel=3 note=38 velocity=0 time=240note_on channel=3 note=38 velocity=96 time=0note_on channel=3 note=38 velocity=0 time=240note_on channel=3 note=38 velocity=96 time=0note_on channel=3 note=38 velocity=0 time=240note_on channel=3 note=38 velocity=96 time=80note_on channel=3 note=38 velocity=0 time=240note_on channel=3 note=38 velocity=96 time=80note_on channel=3 note=38 velocity=0 time=240note_on channel=3 note=50 velocity=96 time=80note_on channel=3 note=50 velocity=0 time=240note_on channel=3 note=38 velocity=96 time=400note_on channel=3 note=38 velocity=0 time=240note_on channel=3 note=45 velocity=96 time=80note_on channel=3 note=45 velocity=0 time=240note_on channel=3 note=45 velocity=96 time=80note_on channel=3 note=45 velocity=0 time=240note_on channel=3 note=45 velocity=96 time=80note_on channel=3 note=45 velocity=0 time=240note_on channel=3 note=50 velocity=96 time=80note_on channel=3 note=50 velocity=0 time=960note_on channel=3 note=38 velocity=96 time=0note_on channel=3 note=38 velocity=0 time=240note_on channel=3 note=38 velocity=96 time=80note_on channel=3 note=38 velocity=0 time=240note_on channel=3 note=38 velocity=96 time=80note_on channel=3 note=38 velocity=0 time=240note_on channel=3 note=50 velocity=96 time=80note_on channel=3 note=50 velocity=0 time=960note_on channel=3 note=38 velocity=96 time=0note_on channel=3 note=38 velocity=0 time=240note_on channel=3 note=38 velocity=96 time=80note_on channel=3 note=38 velocity=0 time=240note_on channel=3 note=38 velocity=96 time=80note_on channel=3 note=38 velocity=0 time=240note_on channel=3 note=50 velocity=96 time=80note_on channel=3 note=50 velocity=0 time=960note_on channel=3 note=38 velocity=96 time=0note_on channel=3 note=38 velocity=0 time=240note_on channel=3 note=38 velocity=96 time=80note_on channel=3 note=38 velocity=0 time=240note_on channel=3 note=38 velocity=96 time=80note_on channel=3 note=38 velocity=0 time=240note_on channel=3 note=50 velocity=96 time=80note_on channel=3 note=50 velocity=0 time=960note_on channel=3 note=38 velocity=96 time=0note_on channel=3 note=38 velocity=0 time=240note_on channel=3 note=38 velocity=96 time=80note_on channel=3 note=38 velocity=0 time=240note_on channel=3 note=38 velocity=96 time=80note_on channel=3 note=38 velocity=0 time=240note_on channel=3 note=43 velocity=96 time=80note_on channel=3 note=43 velocity=0 time=960note_on channel=3 note=43 velocity=96 time=0note_on channel=3 note=43 velocity=0 time=240note_on channel=3 note=43 velocity=96 time=80note_on channel=3 note=43 velocity=0 time=240note_on channel=3 note=43 velocity=96 time=80note_on channel=3 note=43 velocity=0 time=240note_on channel=3 note=46 velocity=96 time=80note_on channel=3 note=46 velocity=0 time=960note_on channel=3 note=48 velocity=96 time=0note_on channel=3 note=48 velocity=0 time=960note_on channel=3 note=50 velocity=96 time=0note_on channel=3 note=50 velocity=0 time=3840<meta message end_of_track time=1920>program_change channel=9 program=0 time=0<meta message track_name name='Percussion' time=0>pitchwheel channel=9 pitch=0 time=960control_change channel=9 control=7 value=112 time=0note_on channel=9 note=44 velocity=80 time=27840note_on channel=9 note=44 velocity=0 time=240note_on channel=9 note=44 velocity=80 time=720note_on channel=9 note=44 velocity=0 time=240note_on channel=9 note=44 velocity=80 time=720note_on channel=9 note=44 velocity=0 time=240note_on channel=9 note=44 velocity=80 time=720note_on channel=9 note=44 velocity=0 time=240note_on channel=9 note=44 velocity=80 time=80note_on channel=9 note=44 velocity=0 time=240note_on channel=9 note=44 velocity=80 time=80note_on channel=9 note=44 velocity=0 time=240note_on channel=9 note=44 velocity=80 time=80note_on channel=9 note=44 velocity=0 time=240note_on channel=9 note=44 velocity=80 time=720note_on channel=9 note=44 velocity=0 time=240note_on channel=9 note=44 velocity=80 time=720note_on channel=9 note=44 velocity=0 time=240note_on channel=9 note=44 velocity=80 time=720note_on channel=9 note=44 velocity=0 time=240note_on channel=9 note=44 velocity=80 time=720note_on channel=9 note=44 velocity=0 time=240note_on channel=9 note=44 velocity=80 time=720note_on channel=9 note=44 velocity=0 time=240note_on channel=9 note=44 velocity=80 time=720note_on channel=9 note=44 velocity=0 time=240note_on channel=9 note=44 velocity=80 time=720note_on channel=9 note=44 velocity=0 time=240note_on channel=9 note=44 velocity=80 time=80note_on channel=9 note=44 velocity=0 time=240note_on channel=9 note=44 velocity=80 time=80note_on channel=9 note=44 velocity=0 time=240note_on channel=9 note=44 velocity=80 time=80note_on channel=9 note=44 velocity=0 time=240note_on channel=9 note=44 velocity=80 time=720note_on channel=9 note=44 velocity=0 time=240note_on channel=9 note=44 velocity=80 time=720note_on channel=9 note=44 velocity=0 time=240note_on channel=9 note=44 velocity=80 time=720note_on channel=9 note=44 velocity=0 time=240note_on channel=9 note=44 velocity=80 time=720note_on channel=9 note=44 velocity=0 time=240note_on channel=9 note=44 velocity=80 time=720note_on channel=9 note=44 velocity=0 time=240note_on channel=9 note=44 velocity=80 time=720note_on channel=9 note=44 velocity=0 time=240note_on channel=9 note=44 velocity=80 time=720note_on channel=9 note=44 velocity=0 time=240note_on channel=9 note=44 velocity=80 time=80note_on channel=9 note=44 velocity=0 time=240note_on channel=9 note=44 velocity=80 time=80note_on channel=9 note=44 velocity=0 time=240note_on channel=9 note=44 velocity=80 time=80note_on channel=9 note=44 velocity=0 time=240note_on channel=9 note=44 velocity=80 time=720note_on channel=9 note=44 velocity=0 time=240note_on channel=9 note=44 velocity=80 time=720note_on channel=9 note=44 velocity=0 time=240note_on channel=9 note=44 velocity=80 time=720note_on channel=9 note=44 velocity=0 time=240note_on channel=9 note=44 velocity=80 time=720note_on channel=9 note=44 velocity=0 time=240note_on channel=9 note=44 velocity=80 time=720note_on channel=9 note=44 velocity=0 time=240note_on channel=9 note=44 velocity=80 time=720note_on channel=9 note=44 velocity=0 time=240note_on channel=9 note=44 velocity=80 time=720note_on channel=9 note=44 velocity=0 time=240note_on channel=9 note=44 velocity=80 time=80note_on channel=9 note=44 velocity=0 time=240note_on channel=9 note=44 velocity=80 time=80note_on channel=9 note=44 velocity=0 time=240note_on channel=9 note=44 velocity=80 time=80note_on channel=9 note=44 velocity=0 time=240note_on channel=9 note=44 velocity=80 time=720note_on channel=9 note=44 velocity=0 time=240note_on channel=9 note=44 velocity=80 time=720note_on channel=9 note=44 velocity=0 time=240note_on channel=9 note=44 velocity=80 time=720note_on channel=9 note=44 velocity=0 time=240note_on channel=9 note=44 velocity=80 time=720note_on channel=9 note=44 velocity=0 time=240note_on channel=9 note=44 velocity=80 time=720note_on channel=9 note=44 velocity=0 time=240note_on channel=9 note=44 velocity=80 time=720note_on channel=9 note=44 velocity=0 time=240note_on channel=9 note=44 velocity=80 time=720note_on channel=9 note=44 velocity=0 time=240note_on channel=9 note=44 velocity=80 time=80note_on channel=9 note=44 velocity=0 time=240note_on channel=9 note=44 velocity=80 time=80note_on channel=9 note=44 velocity=0 time=240note_on channel=9 note=44 velocity=127 time=80note_on channel=9 note=44 velocity=0 time=240note_on channel=9 note=44 velocity=80 time=720note_on channel=9 note=44 velocity=0 time=240note_on channel=9 note=44 velocity=96 time=80note_on channel=9 note=44 velocity=0 time=240note_on channel=9 note=44 velocity=112 time=80note_on channel=9 note=44 velocity=0 time=240note_on channel=9 note=44 velocity=127 time=80note_on channel=9 note=44 velocity=0 time=240note_on channel=9 note=44 velocity=80 time=720note_on channel=9 note=44 velocity=0 time=240note_on channel=9 note=44 velocity=96 time=80note_on channel=9 note=44 velocity=0 time=240note_on channel=9 note=44 velocity=112 time=80note_on channel=9 note=44 velocity=0 time=240note_on channel=9 note=44 velocity=127 time=80note_on channel=9 note=44 velocity=0 time=240note_on channel=9 note=44 velocity=80 time=720note_on channel=9 note=44 velocity=0 time=240note_on channel=9 note=44 velocity=96 time=80note_on channel=9 note=44 velocity=0 time=240note_on channel=9 note=44 velocity=112 time=80note_on channel=9 note=44 velocity=0 time=240note_on channel=9 note=44 velocity=127 time=80note_on channel=9 note=44 velocity=0 time=240note_on channel=9 note=44 velocity=80 time=720note_on channel=9 note=44 velocity=0 time=240note_on channel=9 note=44 velocity=96 time=80note_on channel=9 note=44 velocity=0 time=240note_on channel=9 note=44 velocity=112 time=80note_on channel=9 note=44 velocity=0 time=240note_on channel=9 note=44 velocity=127 time=80note_on channel=9 note=44 velocity=0 time=240note_on channel=9 note=44 velocity=80 time=720note_on channel=9 note=44 velocity=0 time=240note_on channel=9 note=44 velocity=96 time=80note_on channel=9 note=44 velocity=0 time=240note_on channel=9 note=44 velocity=112 time=80note_on channel=9 note=44 velocity=0 time=240note_on channel=9 note=44 velocity=127 time=80note_on channel=9 note=44 velocity=0 time=240note_on channel=9 note=44 velocity=80 time=720note_on channel=9 note=44 velocity=0 time=240note_on channel=9 note=44 velocity=96 time=80note_on channel=9 note=44 velocity=0 time=240note_on channel=9 note=44 velocity=112 time=80note_on channel=9 note=44 velocity=0 time=240note_on channel=9 note=44 velocity=127 time=80note_on channel=9 note=44 velocity=0 time=240note_on channel=9 note=44 velocity=80 time=720note_on channel=9 note=44 velocity=0 time=240note_on channel=9 note=44 velocity=96 time=80note_on channel=9 note=44 velocity=0 time=240note_on channel=9 note=44 velocity=112 time=80note_on channel=9 note=44 velocity=0 time=240note_on channel=9 note=44 velocity=127 time=80note_on channel=9 note=44 velocity=0 time=240note_on channel=9 note=44 velocity=80 time=720note_on channel=9 note=44 velocity=0 time=240note_on channel=9 note=44 velocity=96 time=80note_on channel=9 note=44 velocity=0 time=240note_on channel=9 note=44 velocity=112 time=80note_on channel=9 note=44 velocity=0 time=240note_on channel=9 note=44 velocity=127 time=80note_on channel=9 note=44 velocity=0 time=240note_on channel=9 note=44 velocity=80 time=720note_on channel=9 note=44 velocity=0 time=240note_on channel=9 note=44 velocity=96 time=80note_on channel=9 note=44 velocity=0 time=240note_on channel=9 note=44 velocity=112 time=80note_on channel=9 note=44 velocity=0 time=240note_on channel=9 note=44 velocity=127 time=80note_on channel=9 note=44 velocity=0 time=240note_on channel=9 note=44 velocity=80 time=720note_on channel=9 note=44 velocity=0 time=240note_on channel=9 note=44 velocity=96 time=80note_on channel=9 note=44 velocity=0 time=240note_on channel=9 note=44 velocity=112 time=80note_on channel=9 note=44 velocity=0 time=240note_on channel=9 note=44 velocity=127 time=80note_on channel=9 note=44 velocity=0 time=240note_on channel=9 note=44 velocity=80 time=720note_on channel=9 note=44 velocity=0 time=240note_on channel=9 note=44 velocity=96 time=80note_on channel=9 note=44 velocity=0 time=240note_on channel=9 note=44 velocity=112 time=80note_on channel=9 note=44 velocity=0 time=240note_on channel=9 note=44 velocity=127 time=80note_on channel=9 note=44 velocity=0 time=240note_on channel=9 note=44 velocity=80 time=720note_on channel=9 note=44 velocity=0 time=240note_on channel=9 note=44 velocity=96 time=80note_on channel=9 note=44 velocity=0 time=240note_on channel=9 note=44 velocity=112 time=80note_on channel=9 note=44 velocity=0 time=240note_on channel=9 note=44 velocity=127 time=80note_on channel=9 note=44 velocity=0 time=240note_on channel=9 note=44 velocity=80 time=720note_on channel=9 note=44 velocity=0 time=240note_on channel=9 note=44 velocity=96 time=80note_on channel=9 note=44 velocity=0 time=240note_on channel=9 note=44 velocity=112 time=80note_on channel=9 note=44 velocity=0 time=240note_on channel=9 note=44 velocity=127 time=80note_on channel=9 note=44 velocity=0 time=240note_on channel=9 note=44 velocity=80 time=720note_on channel=9 note=44 velocity=0 time=240note_on channel=9 note=44 velocity=96 time=80note_on channel=9 note=44 velocity=0 time=240note_on channel=9 note=44 velocity=112 time=80note_on channel=9 note=44 velocity=0 time=240pitchwheel channel=9 pitch=-8192 time=80note_on channel=9 note=44 velocity=127 time=0note_on channel=9 note=44 velocity=0 time=240note_on channel=9 note=44 velocity=80 time=720note_on channel=9 note=44 velocity=0 time=240note_on channel=9 note=44 velocity=96 time=80note_on channel=9 note=44 velocity=0 time=240note_on channel=9 note=44 velocity=112 time=80note_on channel=9 note=44 velocity=0 time=240note_on channel=9 note=44 velocity=127 time=80note_on channel=9 note=44 velocity=0 time=240note_on channel=9 note=44 velocity=80 time=720note_on channel=9 note=44 velocity=0 time=240note_on channel=9 note=44 velocity=96 time=80note_on channel=9 note=44 velocity=0 time=240note_on channel=9 note=44 velocity=112 time=80note_on channel=9 note=44 velocity=0 time=240pitchwheel channel=9 pitch=0 time=80note_on channel=9 note=44 velocity=112 time=0note_on channel=9 note=44 velocity=0 time=240note_on channel=9 note=44 velocity=64 time=480note_on channel=9 note=44 velocity=0 time=80note_on channel=9 note=44 velocity=80 time=0note_on channel=9 note=44 velocity=0 time=80note_on channel=9 note=44 velocity=96 time=0note_on channel=9 note=44 velocity=0 time=80note_on channel=9 note=44 velocity=112 time=0note_on channel=9 note=44 velocity=0 time=240note_on channel=9 note=44 velocity=64 time=480note_on channel=9 note=44 velocity=0 time=80note_on channel=9 note=44 velocity=80 time=0note_on channel=9 note=44 velocity=0 time=80note_on channel=9 note=44 velocity=96 time=0note_on channel=9 note=44 velocity=0 time=80note_on channel=9 note=44 velocity=112 time=0note_on channel=9 note=44 velocity=0 time=240note_on channel=9 note=44 velocity=64 time=480note_on channel=9 note=44 velocity=0 time=80note_on channel=9 note=44 velocity=80 time=0note_on channel=9 note=44 velocity=0 time=80note_on channel=9 note=44 velocity=96 time=0note_on channel=9 note=44 velocity=0 time=80note_on channel=9 note=44 velocity=112 time=0note_on channel=9 note=44 velocity=0 time=240note_on channel=9 note=44 velocity=112 time=240note_on channel=9 note=44 velocity=0 time=240note_on channel=9 note=44 velocity=112 time=240note_on channel=9 note=44 velocity=0 time=240note_on channel=9 note=44 velocity=64 time=480note_on channel=9 note=44 velocity=0 time=80note_on channel=9 note=44 velocity=80 time=0note_on channel=9 note=44 velocity=0 time=80note_on channel=9 note=44 velocity=96 time=0note_on channel=9 note=44 velocity=0 time=80note_on channel=9 note=44 velocity=112 time=0note_on channel=9 note=44 velocity=0 time=240note_on channel=9 note=44 velocity=64 time=480note_on channel=9 note=44 velocity=0 time=80note_on channel=9 note=44 velocity=80 time=0note_on channel=9 note=44 velocity=0 time=80note_on channel=9 note=44 velocity=96 time=0note_on channel=9 note=44 velocity=0 time=80note_on channel=9 note=44 velocity=112 time=0note_on channel=9 note=44 velocity=0 time=240note_on channel=9 note=44 velocity=64 time=480note_on channel=9 note=44 velocity=0 time=80note_on channel=9 note=44 velocity=80 time=0note_on channel=9 note=44 velocity=0 time=80note_on channel=9 note=44 velocity=96 time=0note_on channel=9 note=44 velocity=0 time=80note_on channel=9 note=44 velocity=112 time=0note_on channel=9 note=44 velocity=0 time=240note_on channel=9 note=44 velocity=112 time=240note_on channel=9 note=44 velocity=0 time=240pitchwheel channel=9 pitch=0 time=240note_on channel=9 note=44 velocity=112 time=0note_on channel=9 note=44 velocity=0 time=240note_on channel=9 note=44 velocity=64 time=480note_on channel=9 note=44 velocity=0 time=80note_on channel=9 note=44 velocity=80 time=0note_on channel=9 note=44 velocity=0 time=80note_on channel=9 note=44 velocity=96 time=0note_on channel=9 note=44 velocity=0 time=80note_on channel=9 note=44 velocity=112 time=0note_on channel=9 note=44 velocity=0 time=240note_on channel=9 note=44 velocity=64 time=480note_on channel=9 note=44 velocity=0 time=80note_on channel=9 note=44 velocity=80 time=0note_on channel=9 note=44 velocity=0 time=80note_on channel=9 note=44 velocity=96 time=0note_on channel=9 note=44 velocity=0 time=80note_on channel=9 note=44 velocity=112 time=0note_on channel=9 note=44 velocity=0 time=240note_on channel=9 note=44 velocity=64 time=480note_on channel=9 note=44 velocity=0 time=80note_on channel=9 note=44 velocity=80 time=0note_on channel=9 note=44 velocity=0 time=80note_on channel=9 note=44 velocity=96 time=0note_on channel=9 note=44 velocity=0 time=80note_on channel=9 note=44 velocity=112 time=0note_on channel=9 note=44 velocity=0 time=240note_on channel=9 note=44 velocity=112 time=240note_on channel=9 note=44 velocity=0 time=240note_on channel=9 note=44 velocity=112 time=240note_on channel=9 note=44 velocity=0 time=240note_on channel=9 note=44 velocity=64 time=480note_on channel=9 note=44 velocity=0 time=80note_on channel=9 note=44 velocity=80 time=0note_on channel=9 note=44 velocity=0 time=80note_on channel=9 note=44 velocity=96 time=0note_on channel=9 note=44 velocity=0 time=80note_on channel=9 note=44 velocity=112 time=0note_on channel=9 note=44 velocity=0 time=240note_on channel=9 note=44 velocity=64 time=480note_on channel=9 note=44 velocity=0 time=80note_on channel=9 note=44 velocity=80 time=0note_on channel=9 note=44 velocity=0 time=80note_on channel=9 note=44 velocity=96 time=0note_on channel=9 note=44 velocity=0 time=80note_on channel=9 note=44 velocity=112 time=0note_on channel=9 note=44 velocity=0 time=240note_on channel=9 note=44 velocity=64 time=480note_on channel=9 note=44 velocity=0 time=80note_on channel=9 note=44 velocity=80 time=0note_on channel=9 note=44 velocity=0 time=80note_on channel=9 note=44 velocity=96 time=0note_on channel=9 note=44 velocity=0 time=80note_on channel=9 note=44 velocity=112 time=0note_on channel=9 note=44 velocity=0 time=240note_on channel=9 note=44 velocity=112 time=240note_on channel=9 note=44 velocity=0 time=240note_on channel=9 note=44 velocity=112 time=240note_on channel=9 note=44 velocity=0 time=240note_on channel=9 note=44 velocity=64 time=480note_on channel=9 note=44 velocity=0 time=80note_on channel=9 note=44 velocity=80 time=0note_on channel=9 note=44 velocity=0 time=80note_on channel=9 note=44 velocity=96 time=0note_on channel=9 note=44 velocity=0 time=80note_on channel=9 note=44 velocity=112 time=0note_on channel=9 note=44 velocity=0 time=240note_on channel=9 note=44 velocity=64 time=480note_on channel=9 note=44 velocity=0 time=80note_on channel=9 note=44 velocity=80 time=0note_on channel=9 note=44 velocity=0 time=80note_on channel=9 note=44 velocity=96 time=0note_on channel=9 note=44 velocity=0 time=80note_on channel=9 note=44 velocity=112 time=0note_on channel=9 note=44 velocity=0 time=240note_on channel=9 note=44 velocity=64 time=480note_on channel=9 note=44 velocity=0 time=80note_on channel=9 note=44 velocity=80 time=0note_on channel=9 note=44 velocity=0 time=80note_on channel=9 note=44 velocity=96 time=0note_on channel=9 note=44 velocity=0 time=80note_on channel=9 note=44 velocity=112 time=0note_on channel=9 note=44 velocity=0 time=240note_on channel=9 note=44 velocity=112 time=240note_on channel=9 note=44 velocity=0 time=240note_on channel=9 note=44 velocity=112 time=240note_on channel=9 note=44 velocity=0 time=240note_on channel=9 note=44 velocity=64 time=480note_on channel=9 note=44 velocity=0 time=80note_on channel=9 note=44 velocity=80 time=0note_on channel=9 note=44 velocity=0 time=80note_on channel=9 note=44 velocity=96 time=0note_on channel=9 note=44 velocity=0 time=80note_on channel=9 note=44 velocity=112 time=0note_on channel=9 note=44 velocity=0 time=240note_on channel=9 note=44 velocity=64 time=480note_on channel=9 note=44 velocity=0 time=80note_on channel=9 note=44 velocity=80 time=0note_on channel=9 note=44 velocity=0 time=80note_on channel=9 note=44 velocity=96 time=0note_on channel=9 note=44 velocity=0 time=80note_on channel=9 note=44 velocity=112 time=0note_on channel=9 note=44 velocity=0 time=240note_on channel=9 note=44 velocity=64 time=480note_on channel=9 note=44 velocity=0 time=80note_on channel=9 note=44 velocity=80 time=0note_on channel=9 note=44 velocity=0 time=80note_on channel=9 note=44 velocity=96 time=0note_on channel=9 note=44 velocity=0 time=80note_on channel=9 note=44 velocity=112 time=0note_on channel=9 note=44 velocity=0 time=240note_on channel=9 note=44 velocity=112 time=240note_on channel=9 note=44 velocity=0 time=240note_on channel=9 note=44 velocity=112 time=240note_on channel=9 note=44 velocity=0 time=240note_on channel=9 note=44 velocity=64 time=480note_on channel=9 note=44 velocity=0 time=80note_on channel=9 note=44 velocity=80 time=0note_on channel=9 note=44 velocity=0 time=80note_on channel=9 note=44 velocity=96 time=0note_on channel=9 note=44 velocity=0 time=80note_on channel=9 note=44 velocity=112 time=0note_on channel=9 note=44 velocity=0 time=240note_on channel=9 note=44 velocity=64 time=480note_on channel=9 note=44 velocity=0 time=80note_on channel=9 note=44 velocity=80 time=0note_on channel=9 note=44 velocity=0 time=80note_on channel=9 note=44 velocity=96 time=0note_on channel=9 note=44 velocity=0 time=80note_on channel=9 note=44 velocity=112 time=0note_on channel=9 note=44 velocity=0 time=240note_on channel=9 note=44 velocity=64 time=480note_on channel=9 note=44 velocity=0 time=80note_on channel=9 note=44 velocity=80 time=0note_on channel=9 note=44 velocity=0 time=80note_on channel=9 note=44 velocity=96 time=0note_on channel=9 note=44 velocity=0 time=80note_on channel=9 note=44 velocity=112 time=0note_on channel=9 note=44 velocity=0 time=240note_on channel=9 note=44 velocity=112 time=240note_on channel=9 note=44 velocity=0 time=240note_on channel=9 note=44 velocity=112 time=240note_on channel=9 note=44 velocity=0 time=240note_on channel=9 note=44 velocity=64 time=480note_on channel=9 note=44 velocity=0 time=80note_on channel=9 note=44 velocity=80 time=0note_on channel=9 note=44 velocity=0 time=80note_on channel=9 note=44 velocity=96 time=0note_on channel=9 note=44 velocity=0 time=80note_on channel=9 note=44 velocity=112 time=0note_on channel=9 note=44 velocity=0 time=240note_on channel=9 note=44 velocity=64 time=480note_on channel=9 note=44 velocity=0 time=80note_on channel=9 note=44 velocity=80 time=0note_on channel=9 note=44 velocity=0 time=80note_on channel=9 note=44 velocity=96 time=0note_on channel=9 note=44 velocity=0 time=80note_on channel=9 note=44 velocity=112 time=0note_on channel=9 note=44 velocity=0 time=240note_on channel=9 note=44 velocity=64 time=480note_on channel=9 note=44 velocity=0 time=80note_on channel=9 note=44 velocity=80 time=0note_on channel=9 note=44 velocity=0 time=80note_on channel=9 note=44 velocity=96 time=0note_on channel=9 note=44 velocity=0 time=80note_on channel=9 note=44 velocity=112 time=0note_on channel=9 note=44 velocity=0 time=240note_on channel=9 note=44 velocity=112 time=240note_on channel=9 note=44 velocity=0 time=240note_on channel=9 note=44 velocity=96 time=240note_on channel=9 note=44 velocity=0 time=240note_on channel=9 note=44 velocity=96 time=720note_on channel=9 note=44 velocity=0 time=240note_on channel=9 note=44 velocity=96 time=720note_on channel=9 note=44 velocity=0 time=240note_on channel=9 note=44 velocity=96 time=720note_on channel=9 note=44 velocity=0 time=240note_on channel=9 note=44 velocity=96 time=80note_on channel=9 note=44 velocity=0 time=240note_on channel=9 note=44 velocity=96 time=80note_on channel=9 note=44 velocity=0 time=240note_on channel=9 note=44 velocity=96 time=80note_on channel=9 note=44 velocity=0 time=240note_on channel=9 note=44 velocity=96 time=720note_on channel=9 note=44 velocity=0 time=240note_on channel=9 note=44 velocity=96 time=720note_on channel=9 note=44 velocity=0 time=240note_on channel=9 note=44 velocity=96 time=720note_on channel=9 note=44 velocity=0 time=240note_on channel=9 note=44 velocity=96 time=80note_on channel=9 note=44 velocity=0 time=240note_on channel=9 note=44 velocity=96 time=80note_on channel=9 note=44 velocity=0 time=240note_on channel=9 note=44 velocity=96 time=80note_on channel=9 note=44 velocity=0 time=240note_on channel=9 note=44 velocity=96 time=720note_on channel=9 note=44 velocity=0 time=240note_on channel=9 note=44 velocity=96 time=720note_on channel=9 note=44 velocity=0 time=240note_on channel=9 note=44 velocity=96 time=720note_on channel=9 note=44 velocity=0 time=240note_on channel=9 note=44 velocity=96 time=80note_on channel=9 note=44 velocity=0 time=240note_on channel=9 note=44 velocity=96 time=80note_on channel=9 note=44 velocity=0 time=240note_on channel=9 note=44 velocity=96 time=80note_on channel=9 note=44 velocity=0 time=240note_on channel=9 note=44 velocity=96 time=720note_on channel=9 note=44 velocity=0 time=240note_on channel=9 note=44 velocity=96 time=720note_on channel=9 note=44 velocity=0 time=240note_on channel=9 note=44 velocity=96 time=720note_on channel=9 note=44 velocity=0 time=240note_on channel=9 note=44 velocity=96 time=80note_on channel=9 note=44 velocity=0 time=240note_on channel=9 note=44 velocity=96 time=80note_on channel=9 note=44 velocity=0 time=240note_on channel=9 note=44 velocity=96 time=80note_on channel=9 note=44 velocity=0 time=240note_on channel=9 note=44 velocity=96 time=720note_on channel=9 note=44 velocity=0 time=240note_on channel=9 note=44 velocity=96 time=720note_on channel=9 note=44 velocity=0 time=240note_on channel=9 note=44 velocity=96 time=720note_on channel=9 note=44 velocity=0 time=240note_on channel=9 note=44 velocity=96 time=80note_on channel=9 note=44 velocity=0 time=240note_on channel=9 note=44 velocity=96 time=80note_on channel=9 note=44 velocity=0 time=240note_on channel=9 note=44 velocity=96 time=80note_on channel=9 note=44 velocity=0 time=240note_on channel=9 note=44 velocity=96 time=720note_on channel=9 note=44 velocity=0 time=240note_on channel=9 note=44 velocity=96 time=720note_on channel=9 note=44 velocity=0 time=240note_on channel=9 note=44 velocity=96 time=720note_on channel=9 note=44 velocity=0 time=240note_on channel=9 note=44 velocity=96 time=80note_on channel=9 note=44 velocity=0 time=240note_on channel=9 note=44 velocity=96 time=80note_on channel=9 note=44 velocity=0 time=240note_on channel=9 note=44 velocity=96 time=80note_on channel=9 note=44 velocity=0 time=240note_on channel=9 note=44 velocity=96 time=720note_on channel=9 note=44 velocity=0 time=240note_on channel=9 note=44 velocity=96 time=720note_on channel=9 note=44 velocity=0 time=240note_on channel=9 note=44 velocity=96 time=720note_on channel=9 note=44 velocity=0 time=240note_on channel=9 note=44 velocity=96 time=80note_on channel=9 note=44 velocity=0 time=240note_on channel=9 note=44 velocity=96 time=80note_on channel=9 note=44 velocity=0 time=240note_on channel=9 note=44 velocity=127 time=80note_on channel=9 note=44 velocity=0 time=240note_on channel=9 note=44 velocity=127 time=720note_on channel=9 note=44 velocity=0 time=240note_on channel=9 note=44 velocity=80 time=720note_on channel=9 note=44 velocity=0 time=240note_on channel=9 note=44 velocity=80 time=720note_on channel=9 note=44 velocity=0 time=240note_on channel=9 note=44 velocity=80 time=80note_on channel=9 note=44 velocity=0 time=240note_on channel=9 note=44 velocity=80 time=80note_on channel=9 note=44 velocity=0 time=240<meta message end_of_track time=2000><meta message end_of_track time=157440><meta message track_name name='Air Fortress' time=0><meta message end_of_track time=157440><meta message track_name name='Introduction' time=0><meta message end_of_track time=157440><meta message end_of_track time=157440><meta message track_name name='by Escaper Kanagushi' time=0><meta message end_of_track time=157440><meta message track_name name='sequenced by SinclairC' time=0><meta message end_of_track time=157440><meta message track_name name='sinclair@across.com' time=0><meta message end_of_track time=157440><meta message end_of_track time=157440><meta message track_name name='I probably should have used an ocarina for a few parts.' time=0><meta message end_of_track time=157440><meta message end_of_track time=157440><meta message track_name name='for Piccolo' time=0><meta message end_of_track time=157440><meta message end_of_track time=157440><meta message track_name name='airfortress.mid' time=0><meta message end_of_track time=157440><meta message track_name name='version 1.1' time=0><meta message end_of_track time=157440>